<?xml version="1.0" standalone="no"?>
<!DOCTYPE svg PUBLIC "-//W3C//DTD SVG 1.1//EN" "http://www.w3.org/Graphics/SVG/1.1/DTD/svg11.dtd">
<svg xmlns="http://www.w3.org/2000/svg" xmlns:xlink="http://www.w3.org/1999/xlink" version="1.1" id="Layer_1" x="0px" y="0px" viewBox="0 0 546.78 475.66" style="enable-background:new 0 0 546.78 475.66;" xml:space="preserve" width="546.780029296875" height="475.6600036621094">
<style type="text/css">
	.st0{fill:#1F3528;}
	.st1{fill:#2C3B42;}
	.st2{fill:#B25416;}
	.st3{fill:#75857A;}
	.st4{fill:#B9A292;}
	.st5{fill:#FFFFFF;}
	.st6{opacity:0.3;}
</style>
<g>
	<path class="st5" d="M199.5,263.11l0.24-0.35c-0.08,0-0.16-0.04-0.24-0.12c0-0.23,0.04-0.35,0.12-0.35c0-0.08,0.12-0.12,0.35-0.12   c0.08-0.16,0.18-0.29,0.29-0.41c0.12-0.12,0.37-0.33,0.76-0.65c0.16-0.23,0.33-0.45,0.53-0.65c0.19-0.19,0.33-0.45,0.41-0.76   c0.16-0.86,0.78-1.29,1.88-1.29l0.12,0.12c0.08-0.08,0.12-0.16,0.12-0.23l-0.24-0.23c-0.31-0.08-0.47-0.19-0.47-0.35   c0-0.08,0.08-0.19,0.24-0.35c0.16-0.39,0.33-0.7,0.53-0.94c0.19-0.23,0.29-0.55,0.29-0.94v-0.23l0.47-0.23l-0.23-0.23h0.23v0.23   c0.16-0.16,0.29-0.25,0.41-0.29c0.12-0.04,0.18-0.14,0.18-0.29v-0.23v-0.12c0.08,0,0.16-0.04,0.23-0.12   c0.63-0.47,1.1-1.17,1.41-2.11c0.16,0,0.23-0.14,0.23-0.41c0-0.27,0.08-0.41,0.23-0.41c0.08,0.08,0.16,0.12,0.24,0.12   c0.31,0,0.47-0.12,0.47-0.35c0.08-0.23,0.16-0.35,0.23-0.35c0.08,0,0.14,0.02,0.18,0.06c0.04,0.04,0.1,0.06,0.18,0.06   c0.08,0,0.14-0.02,0.18-0.06c0.04-0.04,0.14-0.06,0.29-0.06l-0.35-0.23c-0.16,0-0.24-0.08-0.24-0.23c0-0.08,0.08-0.19,0.24-0.35   c0.16-0.16,0.25-0.31,0.29-0.47c0.04-0.16,0.14-0.31,0.29-0.47c0.47-0.08,0.78-0.23,0.94-0.47c0.16-0.23,0.31-0.51,0.47-0.82   c0.08-0.31,0.16-0.51,0.23-0.59l0.94-1.64h0.12c0.08,0,0.14-0.02,0.18-0.06c0.04-0.04,0.1-0.06,0.18-0.06   c0.23-0.16,0.51-0.27,0.82-0.35c0.31-0.08,0.47-0.31,0.47-0.7v-0.47c0-0.39,0.14-0.65,0.41-0.76c0.27-0.12,0.41-0.29,0.41-0.53   c0-0.39,0.43-0.74,1.29-1.06c0.24-0.23,0.35-0.39,0.35-0.47c-0.08-0.08-0.12-0.16-0.12-0.23c0-0.16,0.08-0.29,0.23-0.41   c0.16-0.12,0.31-0.25,0.47-0.41l-0.24-0.12c0.16,0,0.24,0.04,0.24,0.12l1.29-0.7c0.08-0.16,0.18-0.29,0.29-0.41   c0.12-0.12,0.18-0.25,0.18-0.41c0-0.08-0.08-0.27-0.24-0.59h0.24c0.16-0.16,0.33-0.23,0.53-0.23c0.19,0,0.29-0.12,0.29-0.35   c0-0.23-0.04-0.43-0.12-0.59h0.12c0.39,0,0.65-0.14,0.76-0.41c0.12-0.27,0.25-0.53,0.41-0.76c0.31-0.08,0.55-0.21,0.7-0.41   c0.16-0.19,0.31-0.41,0.47-0.65L221.8,234h0.12v0.12c0.16-0.23,0.41-0.45,0.76-0.65c0.35-0.19,0.53-0.49,0.53-0.88h0.35   c0.23,0,0.37-0.08,0.41-0.23c0.04-0.16,0.14-0.27,0.29-0.35c0.23-0.23,0.35-0.39,0.35-0.47v-0.12c0-0.31,0.12-0.47,0.35-0.47   c0.23,0,0.39-0.04,0.47-0.12c0.08-0.39,0.39-0.59,0.94-0.59h0.12c0.08,0,0.12-0.04,0.12-0.12v-0.23c-0.08-0.08-0.12-0.19-0.12-0.35   c0.39-0.16,0.63-0.39,0.7-0.7c0.08-0.31,0.35-0.47,0.82-0.47h0.12c0.08,0,0.16-0.04,0.23-0.12c0.08-0.08,0.12-0.16,0.12-0.23v-0.23   c0-0.31,0.14-0.55,0.41-0.7c0.27-0.16,0.53-0.35,0.76-0.59c0.16-0.08,0.27-0.19,0.35-0.35c0.08-0.16,0.19-0.31,0.35-0.47   c0.16-0.16,0.35-0.25,0.59-0.29c0.23-0.04,0.35-0.21,0.35-0.53v-0.12c0.63-0.16,1.1-0.43,1.41-0.82c0.31-0.39,0.78-0.59,1.41-0.59   h0.12c0.23,0,0.35-0.04,0.35-0.12c0-0.08-0.04-0.16-0.12-0.23c-0.16-0.08-0.23-0.19-0.23-0.35l0.23-0.12l2.46-2   c0.08-0.08,0.12-0.16,0.12-0.23l-0.24-0.23c0.08-0.08,0.16-0.18,0.24-0.29c0.08-0.12,0.16-0.18,0.23-0.18   c0.16,0.16,0.35,0.23,0.59,0.23c0.16,0,0.35-0.12,0.59-0.35c0.55-0.23,0.94-0.51,1.17-0.82c0.31-0.08,0.47-0.19,0.47-0.35   l-0.35-0.23c-0.08,0-0.12-0.08-0.12-0.23c0-0.08,0.04-0.16,0.12-0.23c0,0.08,0.04,0.12,0.12,0.12h0.24h0.12   c0.31,0.23,0.66,0.35,1.06,0.35c0.31,0,0.62-0.16,0.94-0.47l0.23-0.35c-0.16,0-0.27-0.02-0.35-0.06c-0.08-0.04-0.16-0.06-0.24-0.06   c0.39-0.55,1.06-0.9,2-1.06h0.47c0.39,0,0.82,0.16,1.29,0.47c0.31,0.47,0.68,0.78,1.11,0.94c0.43,0.16,0.84,0.31,1.23,0.47   c0.39,0.23,0.76,0.37,1.12,0.41c0.35,0.04,0.72,0.14,1.12,0.29c0.39,0.16,0.66,0.35,0.82,0.59c0.16,0.23,0.35,0.43,0.59,0.59v0.12   c0,0.08,0.02,0.14,0.06,0.18c0.04,0.04,0.06,0.1,0.06,0.18c0,0.23-0.08,0.43-0.24,0.59c0.16,0.16,0.33,0.39,0.53,0.7   c0.19,0.31,0.37,0.55,0.53,0.7c0.16,0.31,0.23,0.55,0.23,0.7l-0.23,0.47c-0.08,0.08-0.12,0.23-0.12,0.47v0.7   c0,0.39,0.02,0.78,0.06,1.17c0.04,0.39,0.06,0.74,0.06,1.06c0,0.23,0.02,0.47,0.06,0.7c0.04,0.23,0.06,0.43,0.06,0.59   c0,0.39-0.16,0.7-0.47,0.94v0.12c0,0.08,0.04,0.12,0.12,0.12c0.16,0.31,0.23,0.51,0.23,0.59c0,0.16-0.04,0.33-0.12,0.53   c-0.08,0.2-0.12,0.37-0.12,0.53v0.23c0.08,0.23,0.12,0.51,0.12,0.82c0,0.55-0.1,1.04-0.29,1.47c-0.2,0.43-0.33,0.92-0.41,1.47   c0,0.55-0.12,1.17-0.35,1.88c0,0.08,0.08,0.2,0.23,0.35c0,0.08,0.02,0.14,0.06,0.18c0.04,0.04,0.06,0.1,0.06,0.18   c-0.39,0.39-0.63,0.88-0.71,1.47c-0.08,0.59-0.23,1.16-0.47,1.7c-0.16,0.47-0.28,0.96-0.35,1.47c-0.08,0.51-0.16,1.08-0.23,1.7   c0,0.39-0.1,0.76-0.29,1.12c-0.2,0.35-0.37,0.69-0.53,1c-0.16,0.23-0.23,0.63-0.23,1.17c0,0.55-0.08,1.04-0.23,1.47   c-0.16,0.43-0.31,0.92-0.47,1.47c0,0.16-0.14,0.61-0.41,1.35c-0.27,0.74-0.55,1.55-0.82,2.41c-0.27,0.86-0.55,1.68-0.82,2.46   c-0.27,0.78-0.41,1.25-0.41,1.41c0,0.31-0.02,0.59-0.06,0.82c-0.04,0.23-0.22,0.43-0.53,0.59c-0.08,0.08-0.12,0.16-0.12,0.23   c0,0.16,0.02,0.27,0.06,0.35c0.04,0.08,0.06,0.2,0.06,0.35v0.23c0,0.16-0.04,0.23-0.12,0.23c-0.08,0-0.2,0.04-0.35,0.12h0.12V261   c0,0.16-0.06,0.27-0.18,0.35c-0.12,0.08-0.18,0.2-0.18,0.35c0,0.16,0.04,0.31,0.12,0.47c-0.08,0.08-0.14,0.23-0.18,0.47   c-0.04,0.23-0.14,0.47-0.29,0.7l-0.35,1.41c0,0.23-0.08,0.67-0.24,1.29c-0.08,0.16-0.39,0.31-0.94,0.47   c-0.16,0.16-0.24,0.27-0.24,0.35l0.24,0.23c0.31,0.08,0.47,0.23,0.47,0.47c0,0.08-0.16,0.2-0.47,0.35   c-0.47,0.16-0.76,0.39-0.88,0.7c-0.12,0.31-0.33,0.55-0.65,0.7c0,0.39,0.08,0.59,0.24,0.59h0.35c0.23,0,0.35,0.08,0.35,0.23   c0,0.16,0.04,0.27,0.12,0.35c0.08,0.08,0.12,0.16,0.12,0.23c0,0.39-0.2,0.59-0.59,0.59c0,0.47,0.04,0.78,0.12,0.94v0.35   c-0.31,0.47-0.49,0.94-0.53,1.41c-0.04,0.47-0.06,0.94-0.06,1.41c0,0.31-0.12,0.47-0.35,0.47l-0.35,0.35   c0-0.08,0.08,0.04,0.24,0.35c0.08,0,0.06,0.02-0.06,0.06c-0.12,0.04-0.25,0.06-0.41,0.06c-0.08-0.08-0.27-0.12-0.59-0.12   c-0.08,0-0.12,0.04-0.12,0.12c0,0.08,0.08,0.16,0.23,0.23c0.16,0.08,0.31,0.12,0.47,0.12c0.31,0,0.47,0.08,0.47,0.23   c-0.08,0.31-0.12,0.59-0.12,0.82c0,0.23-0.08,0.43-0.23,0.59c-0.39,0.23-0.53,0.55-0.41,0.94c0.12,0.39,0.02,0.7-0.29,0.94   c-0.24,0.23-0.35,0.67-0.35,1.29v0.82c-0.08,0.39-0.16,0.78-0.23,1.17c-0.08,0.39-0.12,0.78-0.12,1.17   c-0.24,0.86-0.35,1.6-0.35,2.23c-0.16,0.23-0.23,0.49-0.23,0.76c0,0.27-0.16,0.45-0.47,0.53c-0.08,0.08-0.12,0.23-0.12,0.47   c0,0.39,0.04,0.63,0.12,0.7c0,0.23,0.02,0.47,0.06,0.7c0.04,0.23,0.06,0.47,0.06,0.7v0.35c-0.16,0.63-0.23,1.1-0.23,1.41   c-0.16,0.63-0.31,1.19-0.47,1.7c-0.16,0.51-0.23,1.08-0.23,1.7c0,0.16,0.02,0.29,0.06,0.41c0.04,0.12,0.06,0.26,0.06,0.41   l0.12,0.12c0,0.08-0.02,0.14-0.06,0.18c-0.04,0.04-0.06,0.1-0.06,0.18c-0.16,0.31-0.24,0.59-0.24,0.82c0,0.16,0.02,0.25,0.06,0.29   c0.04,0.04,0.06,0.14,0.06,0.29v0.12c0,0.39-0.06,0.72-0.18,1c-0.12,0.27-0.41,0.45-0.88,0.53c-0.08,0-0.12,0.04-0.12,0.12   c0.08,0.23,0.16,0.35,0.23,0.35c0.78,0,1.17,0.31,1.17,0.94c0,0.16,0.02,0.29,0.06,0.41c0.04,0.12,0.06,0.25,0.06,0.41   c0,0.23-0.12,0.39-0.35,0.47c0,0.16,0.04,0.27,0.12,0.35l0.23,0.47v0.12l-0.23,0.12c-0.08,0-0.12,0.04-0.12,0.12l0.7,0.35   c0.16,0.08,0.23,0.21,0.23,0.41c0,0.19,0.04,0.37,0.12,0.53c0.24,0.47,0.43,0.7,0.59,0.7c0.31,0,0.55-0.08,0.7-0.23h0.7   c0.31,0,0.7-0.12,1.17-0.35c0.39-0.16,0.76-0.29,1.11-0.41c0.35-0.12,0.72-0.18,1.12-0.18h0.24c0.55,0,1.02-0.27,1.41-0.82   c0.47-0.23,0.82-0.35,1.06-0.35c0.39,0,0.66,0.04,0.82,0.12c0.16,0,0.31-0.02,0.47-0.06c0.16-0.04,0.23-0.1,0.23-0.18   c0.16-0.39,0.51-0.59,1.06-0.59c0.16,0,0.29,0.02,0.41,0.06c0.12,0.04,0.25,0.06,0.41,0.06c0.55,0,0.82,0.19,0.82,0.59   c0,0.08-0.02,0.14-0.06,0.18c-0.04,0.04-0.06,0.1-0.06,0.18c0,0.16-0.06,0.45-0.18,0.88c-0.12,0.43-0.22,0.68-0.29,0.76   c-0.16,0.39-0.35,0.7-0.59,0.94c-0.24,0.23-0.59,0.43-1.06,0.59c-0.31,0-0.51,0.08-0.59,0.23c-0.78,0.78-1.66,1.31-2.64,1.58   c-0.98,0.27-1.9,0.61-2.76,1c-0.16,0.08-0.35,0.12-0.59,0.12c-0.31,0-0.51-0.04-0.59-0.12c-0.78-0.08-1.55-0.27-2.29-0.59   c-0.74-0.31-1.51-0.67-2.29-1.06c-0.08,0-0.12-0.08-0.12-0.23c0-0.16-0.04-0.31-0.12-0.47c0-0.16-0.08-0.23-0.23-0.23   c0,0.16-0.04,0.23-0.12,0.23l-0.12,0.12h-0.12c-0.55-0.31-1.04-0.59-1.47-0.82c-0.43-0.23-0.65-0.63-0.65-1.17   c-0.63-0.63-1-1.29-1.12-2c-0.12-0.7-0.33-1.37-0.65-2c-0.16-0.31-0.23-0.63-0.23-0.94c0-0.31,0-0.67,0-1.06v-2.58   c0-0.55,0-1.07,0-1.58c0-0.51,0.04-1,0.12-1.47c0.16-1.17,0.25-2.35,0.29-3.52c0.04-1.17,0.1-2.35,0.18-3.52   c0.16-0.47,0.25-0.88,0.29-1.23c0.04-0.35,0.18-0.72,0.41-1.11v-0.23c0.23-1.25,0.35-2.66,0.35-4.23v-0.35   c0.47-0.78,0.72-1.54,0.76-2.29c0.04-0.74,0.14-1.51,0.29-2.29c0.31-0.86,0.57-1.8,0.76-2.82c0.19-1.02,0.45-1.96,0.76-2.82   c0.24-1.09,0.51-2.11,0.82-3.05c0.31-0.94,0.55-1.95,0.7-3.05l1.76-6.22c0.08-0.08,0.12-0.19,0.12-0.35l1.17-3.17   c0.08-0.39,0.16-0.74,0.23-1.06c0.08-0.31,0.31-0.66,0.7-1.06v-0.12c-0.08-0.08-0.12-0.23-0.12-0.47c0-0.23,0.08-0.35,0.24-0.35   c0.08,0,0.16-0.02,0.23-0.06c0.08-0.04,0.16-0.06,0.23-0.06c0.39,0,0.71,0.16,0.94,0.47h0.47c0-0.16-0.08-0.27-0.24-0.35   c-0.39-0.23-0.78-0.35-1.17-0.35h-0.23c-0.16,0-0.23-0.16-0.23-0.47c0.16-0.55,0.33-1.09,0.53-1.64c0.19-0.55,0.29-1.13,0.29-1.76   c0-0.16,0.04-0.33,0.12-0.53c0.08-0.19,0.16-0.41,0.24-0.65l1.29-4.23c0-0.31,0.04-0.51,0.12-0.59c0.47-1.09,0.78-2.13,0.94-3.11   c0.16-0.98,0.43-1.94,0.82-2.88c0.16-0.39,0.21-0.76,0.18-1.12c-0.04-0.35-0.02-0.72,0.06-1.12c0.16-0.47,0.24-1,0.24-1.58   c0-0.59,0.12-1.12,0.35-1.58c-0.23-0.23-0.35-0.47-0.35-0.7c0-0.23,0.08-0.45,0.23-0.65c0.16-0.19,0.27-0.41,0.35-0.65   c0-0.31-0.04-0.55-0.12-0.7c-0.31-0.23-0.47-0.43-0.47-0.59c0-0.16,0.19-0.23,0.59-0.23c0.08,0,0.12-0.12,0.12-0.35v-0.35   c0-0.16,0.02-0.29,0.06-0.41c0.04-0.12,0.06-0.25,0.06-0.41c0-0.23-0.12-0.43-0.35-0.59v-0.35c0.31-0.23,0.47-0.66,0.47-1.29v-0.7   c0-0.39-0.35-0.59-1.06-0.59h-0.35l-2.93,1.29c-0.47,0.23-0.88,0.51-1.23,0.82c-0.35,0.31-0.8,0.59-1.35,0.82l-0.59,0.47   c-0.16,0.31-0.41,0.55-0.76,0.7c-0.35,0.16-0.61,0.43-0.76,0.82c-0.39,0.23-0.82,0.47-1.29,0.7c-0.47,0.23-0.86,0.51-1.17,0.82   c-0.47,0.39-0.84,0.76-1.12,1.12c-0.27,0.35-0.61,0.69-1,1l-0.82,0.82c-0.31,0.16-0.65,0.33-1,0.53c-0.35,0.2-0.65,0.41-0.88,0.65   c-0.16,0.23-0.29,0.49-0.41,0.76c-0.12,0.27-0.37,0.49-0.76,0.65c-0.08,0.08-0.16,0.12-0.24,0.12c-0.08,0-0.12,0.04-0.12,0.12   c-0.16,0.47-0.39,0.8-0.7,1c-0.31,0.2-0.55,0.37-0.7,0.53c-0.7,0.86-1.41,1.55-2.11,2.05c-0.7,0.51-1.37,1.16-2,1.94   c-0.47,0.86-1.06,1.63-1.76,2.29c-0.7,0.67-1.37,1.31-2,1.94c-0.55,0.63-1.02,1.21-1.41,1.76c-0.39,0.55-0.9,1.1-1.53,1.64   c-0.55,0.47-1,1-1.35,1.58c-0.35,0.59-0.76,1.12-1.23,1.58c-0.39,0.39-0.74,0.84-1.06,1.35c-0.31,0.51-0.67,0.96-1.06,1.35   c-0.23,0.39-0.47,0.76-0.7,1.12c-0.23,0.35-0.47,0.72-0.7,1.11c-0.23,0.39-0.53,0.76-0.88,1.12c-0.35,0.35-0.72,0.72-1.12,1.12   c-0.24,0.47-0.53,0.86-0.88,1.17c-0.35,0.31-0.61,0.67-0.76,1.06c0,0.08-0.02,0.14-0.06,0.18c-0.04,0.04-0.06,0.1-0.06,0.18   c-0.08,0.47-0.31,0.84-0.7,1.12c-0.39,0.27-0.67,0.65-0.82,1.11c-0.23,0.63-0.55,1.12-0.94,1.47c-0.39,0.35-0.78,0.76-1.17,1.23   c-0.16,0.55-0.43,1-0.82,1.35c-0.39,0.35-0.67,0.8-0.82,1.35c-0.31,0.39-0.57,0.8-0.76,1.23c-0.2,0.43-0.49,0.8-0.88,1.12   l-0.35,0.59c-0.55,0.39-0.9,1.02-1.06,1.88c-0.08,0.16-0.18,0.37-0.29,0.65c-0.12,0.27-0.37,0.49-0.76,0.65   c-0.31,0.39-0.57,0.8-0.76,1.23c-0.2,0.43-0.57,0.84-1.12,1.23v0.12c0,0.31-0.12,0.55-0.35,0.7c-0.24,0.16-0.35,0.35-0.35,0.59   v0.23c0,0.31-0.1,0.53-0.29,0.65c-0.2,0.12-0.37,0.33-0.53,0.65c0,0.31-0.16,0.47-0.47,0.47c-0.16-0.08-0.31-0.12-0.47-0.12   c-0.23,0-0.43,0.2-0.59,0.59c-0.23,0-0.35,0.08-0.35,0.23c0,0.16,0.04,0.28,0.12,0.35c0.16,0.08,0.23,0.18,0.23,0.29   c0,0.12,0.04,0.22,0.12,0.29c0,0.16-0.16,0.23-0.47,0.23l-0.24-0.35c-0.16,0-0.23,0.04-0.23,0.12v0.12c0-0.08,0.12,0,0.35,0.23   c0,0.16,0.02,0.29,0.06,0.41c0.04,0.12,0.06,0.26,0.06,0.41v0.12c-0.24,0.31-0.55,0.51-0.94,0.59c-0.39,0.08-0.7,0.27-0.94,0.59   c0,0.08-0.06,0.12-0.18,0.12c-0.12,0-0.18,0.04-0.18,0.12c-0.39,0.08-0.59,0.31-0.59,0.7c-0.16,0.63-0.39,1.21-0.7,1.76   c-0.16,0.39-0.35,0.78-0.59,1.17c-0.23,0.39-0.43,0.78-0.59,1.17c-0.23,0.39-0.49,0.86-0.76,1.41c-0.27,0.55-0.69,1.1-1.23,1.64   c-0.23,0.31-0.39,0.74-0.47,1.29c0,0.39-0.14,0.67-0.41,0.82c-0.27,0.16-0.45,0.39-0.53,0.7c0,0.31-0.12,0.59-0.35,0.82   c-0.23,0.23-0.39,0.51-0.47,0.82c0,0.31-0.1,0.57-0.29,0.76c-0.2,0.2-0.41,0.41-0.65,0.65l-0.12,0.12c0,0.08-0.04,0.12-0.12,0.12   c0.08,0.08,0.12,0.23,0.12,0.47c0,0.23-0.06,0.41-0.18,0.53c-0.12,0.12-0.18,0.29-0.18,0.53v0.23c0,0.16-0.1,0.29-0.29,0.41   c-0.2,0.12-0.37,0.29-0.53,0.53v0.12c0,0.08,0.02,0.12,0.06,0.12c0.04,0,0.06,0.08,0.06,0.23c0,0.16-0.04,0.27-0.12,0.35   c-0.16,0.08-0.31,0.35-0.47,0.82c-0.08,0.16-0.14,0.29-0.18,0.41c-0.04,0.12-0.18,0.25-0.41,0.41c-0.08,0.08-0.12,0.16-0.12,0.23   c0,0.08,0.02,0.14,0.06,0.18c0.04,0.04,0.06,0.1,0.06,0.18c0,0.08-0.08,0.19-0.24,0.35l0.24,0.23c0,0.16-0.12,0.23-0.35,0.23   l-0.12,0.12c-0.16,0.39-0.33,0.74-0.53,1.06c-0.2,0.31-0.29,0.63-0.29,0.94v0.23c0,0.08-0.02,0.18-0.06,0.29   c-0.04,0.12-0.06,0.21-0.06,0.29c-0.16,0.16-0.24,0.33-0.24,0.53c0,0.19-0.04,0.33-0.12,0.41c0,0.23,0.04,0.35,0.12,0.35   c0.31,0.08,0.47,0.43,0.47,1.06c0,0.16,0.04,0.31,0.12,0.47c0.08,0.16,0.12,0.31,0.12,0.47l-0.23,0.47l-0.12,0.23   c0,0.08-0.04,0.12-0.12,0.12l-0.12,0.23v0.23c0,0.23-0.08,0.43-0.23,0.59c-0.16,0.16-0.31,0.35-0.47,0.59   c-0.16,0.31-0.29,0.61-0.41,0.88c-0.12,0.27-0.26,0.57-0.41,0.88c-0.08,0.94-0.35,1.84-0.82,2.7v0.47c0,0.08,0.02,0.14,0.06,0.18   c0.04,0.04,0.06,0.1,0.06,0.18l-0.12,0.12h-0.12c-0.08,0-0.12-0.04-0.12-0.12c-0.31,0-0.51,0.16-0.59,0.47   c-0.31,0.39-0.57,0.72-0.76,1c-0.2,0.27-0.41,0.65-0.65,1.12c-0.16,0.16-0.24,0.31-0.24,0.47c0,0.16-0.04,0.35-0.12,0.59h-0.47   c-0.08,0-0.12,0.02-0.12,0.06c0,0.04-0.04,0.06-0.12,0.06h-0.23c0.16,0.16,0.23,0.31,0.23,0.47c0,0.16-0.06,0.27-0.18,0.35   c-0.12,0.08-0.22,0.19-0.29,0.35l-0.23,0.35c-0.16,0-0.27-0.04-0.35-0.12c-0.08-0.16-0.27-0.23-0.59-0.23   c-0.39,0-0.62-0.02-0.7-0.06c-0.08-0.04-0.16-0.25-0.23-0.65c0-0.39-0.12-0.78-0.35-1.17c0-0.08-0.04-0.12-0.12-0.12   c-0.16,0-0.23-0.04-0.23-0.12c-0.16,0.08-0.24,0.23-0.24,0.47c0,0.31-0.04,0.55-0.12,0.7c-0.16,0.16-0.51,0.23-1.06,0.23   c-0.16,0-0.23-0.12-0.23-0.35c-0.08,0-0.12-0.1-0.12-0.29c0-0.2,0-0.37,0-0.53v-0.12c0-0.08,0.02-0.14,0.06-0.18   c0.04-0.04,0.06-0.1,0.06-0.18c-0.08,0-0.12,0.02-0.12,0.06c0,0.04-0.04,0.06-0.12,0.06c-0.08-0.08-0.12-0.16-0.12-0.23   c-0.08-0.08-0.12-0.27-0.12-0.59c0.24-0.86,0.41-1.74,0.53-2.64c0.12-0.9,0.29-1.78,0.53-2.64c0.16-0.47,0.33-0.94,0.53-1.41   c0.2-0.47,0.45-0.98,0.76-1.53c0-0.08-0.02-0.16-0.06-0.23c-0.04-0.08-0.06-0.16-0.06-0.23c0-0.31,0.06-0.59,0.18-0.82   c0.12-0.23,0.18-0.55,0.18-0.94l0.23-0.7c0.08-0.08,0.16-0.12,0.23-0.12h0.12c0.08,0,0.14,0.02,0.18,0.06   c0.04,0.04,0.1,0.06,0.18,0.06c0.08,0,0.12-0.04,0.12-0.12h-0.12c-0.16,0-0.23-0.04-0.23-0.12c-0.08-0.08-0.12-0.23-0.12-0.47   c0-0.23,0.04-0.39,0.12-0.47c0.31-0.23,0.49-0.57,0.53-1c0.04-0.43,0.22-0.84,0.53-1.23c0.08-0.16,0.12-0.37,0.12-0.65   c0-0.28,0.08-0.45,0.23-0.53v-0.59c0-0.31,0.08-0.51,0.23-0.59c0.39-0.63,0.68-1.35,0.88-2.17c0.19-0.82,0.49-1.58,0.88-2.29   c0.16-0.47,0.31-0.92,0.47-1.35c0.16-0.43,0.31-0.84,0.47-1.23c0.08-0.31,0.12-0.49,0.12-0.53c0-0.04,0.19-0.06,0.59-0.06   l0.12-0.12c0-0.08-0.02-0.14-0.06-0.18c-0.04-0.04-0.06-0.1-0.06-0.18c0-0.08-0.02-0.16-0.06-0.23c-0.04-0.08-0.06-0.16-0.06-0.23   c0-0.16,0.19-0.23,0.59-0.23v-0.47c0.16-0.16,0.21-0.39,0.18-0.7c-0.04-0.31,0.02-0.55,0.18-0.7c0.39-0.39,0.7-0.9,0.94-1.53   c0-0.16,0.02-0.37,0.06-0.65c0.04-0.27,0.25-0.41,0.65-0.41l-0.35-0.59c0.39-0.47,0.63-0.94,0.7-1.41   c0.08-0.47,0.19-0.94,0.35-1.41c0.47-0.7,0.78-1.41,0.94-2.11c0.39-0.63,0.66-1.17,0.82-1.64c0.16-0.47,0.31-0.98,0.47-1.53   c0.23-0.39,0.41-0.72,0.53-1c0.12-0.27,0.29-0.57,0.53-0.88c0.16-0.16,0.23-0.33,0.23-0.53c0-0.19,0.08-0.37,0.23-0.53   c0.08-0.23,0.12-0.59,0.12-1.06v-0.94c0-0.63,0.08-1.09,0.24-1.41c0-0.08,0.04-0.16,0.12-0.23c0.47-0.23,0.72-0.55,0.76-0.94   c0.04-0.39,0.14-0.78,0.29-1.17c0.16-0.39,0.23-0.78,0.23-1.17c0-0.39,0.12-0.7,0.35-0.94c0.23-0.39,0.39-0.76,0.47-1.12   c0.08-0.35,0.23-0.72,0.47-1.11c0.16-0.16,0.25-0.35,0.29-0.59c0.04-0.23,0.1-0.47,0.18-0.7c0.16-0.63,0.43-1.21,0.82-1.76   c0.24-0.86,0.53-1.62,0.88-2.29c0.35-0.66,0.57-1.39,0.65-2.17c0-0.23,0.08-0.45,0.23-0.65c0.16-0.19,0.31-0.37,0.47-0.53   c0.16-0.86,0.39-1.64,0.7-2.35c0.31-0.7,0.63-1.41,0.94-2.11c0.55-1.33,1.06-2.62,1.53-3.87c0.47-1.25,0.9-2.54,1.29-3.87   c0.63-1.49,1.1-2.93,1.41-4.34c0.16-0.39,0.31-0.59,0.47-0.59c0.16,0,0.24,0.02,0.24,0.06c0,0.04,0.04,0.06,0.12,0.06   c0.23,0,0.35-0.04,0.35-0.12v-0.12c0-0.08-0.04-0.12-0.12-0.12h-0.23c0-0.08-0.02-0.14-0.06-0.18c-0.04-0.04-0.06-0.1-0.06-0.18   c0.08-0.78,0.23-1.49,0.47-2.11c0.16-0.78,0.51-1.68,1.06-2.7v-0.23c-0.08-0.16-0.12-0.35-0.12-0.59c0-0.31,0.1-0.59,0.29-0.82   c0.19-0.23,0.37-0.51,0.53-0.82l0.24-1.29v-0.23c0.39-0.63,0.65-1.29,0.76-2s0.33-1.41,0.65-2.11c0.31-0.7,0.51-1.47,0.59-2.29   c0.08-0.82,0.27-1.66,0.59-2.52c0.31-0.23,0.45-0.55,0.41-0.94c-0.04-0.39,0.02-0.78,0.18-1.17c0.08-0.39,0.14-0.84,0.18-1.35   c0.04-0.51,0.37-0.88,1-1.12c0.08,0,0.12-0.04,0.12-0.12c0-0.08-0.02-0.12-0.06-0.12c-0.04,0-0.06-0.04-0.06-0.12   c-0.08-0.16-0.18-0.27-0.29-0.35c-0.12-0.08-0.18-0.16-0.18-0.23l0.47-1.41h0.35l0.12-0.12c0-0.08-0.02-0.14-0.06-0.18   c-0.04-0.04-0.06-0.1-0.06-0.18c0.16,0,0.24-0.12,0.24-0.35c-0.16-0.16-0.24-0.31-0.24-0.47c0-0.16,0.16-0.27,0.47-0.35v-0.35   c0-0.78,0-1.54,0-2.29c0-0.74,0.04-1.51,0.12-2.29c0-0.23,0.04-0.39,0.12-0.47c0.31-0.55,0.47-0.94,0.47-1.17s-0.04-0.47-0.12-0.7   v-0.35c0-0.16,0.04-0.29,0.12-0.41c0.08-0.12,0.12-0.25,0.12-0.41c0-0.08-0.12-0.23-0.35-0.47c0.16-0.23,0.23-0.55,0.23-0.94   c0-0.23-0.02-0.43-0.06-0.59c-0.04-0.16-0.06-0.35-0.06-0.59c-0.08-0.16-0.12-0.51-0.12-1.06c0-0.47-0.04-0.82-0.12-1.06   c0-0.47-0.2-0.9-0.59-1.29c-0.16-0.16-0.24-0.31-0.24-0.47l0.24-0.23h0.12c0.08,0,0.12-0.04,0.12-0.12l-0.12-0.12   c-0.08,0-0.12-0.04-0.12-0.12c-0.16-0.39-0.31-0.82-0.47-1.29c-0.16-0.47-0.39-0.9-0.7-1.29c-0.08-0.16-0.18-0.25-0.29-0.29   c-0.12-0.04-0.22-0.1-0.29-0.18h-0.12h-0.24c-0.08,0-0.12-0.04-0.12-0.12h0.12c0.08,0,0.16-0.04,0.24-0.12   c0.08-0.08,0.12-0.19,0.12-0.35c0-0.23-0.2-0.39-0.59-0.47c-0.47-0.31-1.02-0.63-1.64-0.94h-0.94c-0.16,0-0.31,0-0.47,0   c-0.16,0-0.31,0.04-0.47,0.12c-0.55-0.08-1.08-0.12-1.58-0.12c-0.51,0-1.08,0-1.7,0c-0.39,0-0.7,0.12-0.94,0.35   c-0.47,0.23-0.96,0.39-1.47,0.47c-0.51,0.08-0.84,0.31-1,0.7l-0.7-0.23h-0.12c-0.08,0-0.12,0.04-0.12,0.12   c0,0.16,0.04,0.27,0.12,0.35v0.23h-0.12c-0.16,0-0.33,0.12-0.53,0.35c-0.2,0.23-0.41,0.35-0.65,0.35c-0.08,0-0.12-0.02-0.12-0.06   c0-0.04-0.04-0.06-0.12-0.06c-0.08-0.08-0.16-0.12-0.23-0.12c-0.23,0-0.35,0.04-0.35,0.12c0,0.16,0.04,0.27,0.12,0.35v0.12   c-0.08,0.08-0.16,0.12-0.24,0.12c-0.47,0.47-1.02,0.86-1.64,1.17l-2.11,2.11c-0.08,0.16-0.2,0.26-0.35,0.29   c-0.16,0.04-0.28,0.1-0.35,0.18l-2.35,2.23c-0.47,0.39-0.84,0.74-1.12,1.06c-0.27,0.31-0.61,0.74-1,1.29   c-0.24,0.16-0.43,0.37-0.59,0.65c-0.16,0.27-0.27,0.53-0.35,0.76c-0.16,0.39-0.37,0.67-0.65,0.82c-0.27,0.16-0.41,0.43-0.41,0.82   c-0.86,0.63-1.51,1.41-1.94,2.35c-0.43,0.94-0.96,1.84-1.58,2.7c-0.39,0.39-0.69,0.84-0.88,1.35c-0.19,0.51-0.49,1-0.88,1.47   c-0.39,0.63-0.7,1.31-0.94,2.05c-0.23,0.74-0.51,1.51-0.82,2.29c0,0.08-0.06,0.16-0.18,0.23c-0.12,0.08-0.21,0.2-0.29,0.35   c-0.39,0.63-0.7,1.23-0.94,1.82c-0.24,0.59-0.51,1.19-0.82,1.82c0.08,0.16,0.12,0.35,0.12,0.59c0,0.39-0.12,0.69-0.35,0.88   c-0.23,0.2-0.39,0.49-0.47,0.88v0.35c0,0.55-0.16,0.94-0.47,1.17c-0.23,0.39-0.39,0.78-0.47,1.17c-0.08,0.39-0.12,0.78-0.12,1.17   c0,0.31-0.02,0.61-0.06,0.88c-0.04,0.27-0.06,0.57-0.06,0.88c-0.16,0.16-0.23,0.35-0.23,0.59c0,0.23,0.16,0.39,0.47,0.47l0.47,0.23   c0,0.16-0.12,0.23-0.35,0.23c-0.24,0.16-0.37,0.35-0.41,0.59c-0.04,0.23-0.06,0.43-0.06,0.59c0.08,0.39,0.12,0.67,0.12,0.82   c0,0.16,0.12,0.35,0.35,0.59c0.39,0.08,0.59,0.31,0.59,0.7v0.23c0,0.47,0.14,0.84,0.41,1.12c0.28,0.27,0.61,0.57,1,0.88   c0.39,0.16,0.78,0.33,1.17,0.53c0.39,0.2,0.74,0.41,1.06,0.65c0.08,0.16,0.2,0.26,0.35,0.29c0.16,0.04,0.24,0.1,0.24,0.18   l-0.12,0.12c0,0.16-0.12,0.23-0.35,0.23l-0.47-0.23c0.16,0.39,0.33,0.65,0.53,0.76c0.2,0.12,0.37,0.25,0.53,0.41v0.23   c0,0.08,0.04,0.12,0.12,0.12l-0.12,0.12v-0.12c-0.31,0.16-0.55,0.23-0.7,0.23l-0.24-0.23h-0.12c-0.23,0-0.39,0.06-0.47,0.18   c-0.08,0.12-0.16,0.22-0.23,0.29c-0.16-0.08-0.35-0.12-0.59-0.12c-0.23,0-0.43-0.04-0.59-0.12c-0.16,0-0.23-0.08-0.23-0.23   c-0.16-0.47-0.43-0.76-0.82-0.88c-0.39-0.12-0.82-0.25-1.29-0.41c-0.39-0.16-0.76-0.39-1.12-0.7c-0.35-0.31-0.72-0.63-1.11-0.94   c-0.16-0.16-0.33-0.33-0.53-0.53c-0.19-0.19-0.37-0.45-0.53-0.76c-0.16-0.16-0.39-0.47-0.7-0.94c-0.16-0.16-0.24-0.29-0.24-0.41   c0-0.12-0.04-0.25-0.12-0.41c-0.23-0.23-0.35-0.43-0.35-0.59c0-0.16,0.08-0.31,0.23-0.47l0.23-0.12c0-0.08-0.08-0.14-0.23-0.18   c-0.16-0.04-0.27-0.1-0.35-0.18c-0.47-0.08-0.7-0.23-0.7-0.47c0-0.16,0.04-0.27,0.12-0.35c0.16-0.31,0.24-0.55,0.24-0.7   c0-0.31-0.04-0.61-0.12-0.88c-0.08-0.27-0.12-0.61-0.12-1l-0.23-0.12c0.39-0.55,0.53-1.15,0.41-1.82c-0.12-0.66,0.06-1.23,0.53-1.7   c0.08-0.08,0.12-0.23,0.12-0.47v-1.06c0.16-0.86,0.41-1.7,0.76-2.52c0.35-0.82,0.69-1.62,1-2.41c0.16-0.47,0.31-0.96,0.47-1.47   c0.16-0.51,0.35-1,0.59-1.47v-0.59c0-0.08,0.12-0.12,0.35-0.12h0.23c0.24,0,0.39-0.23,0.47-0.7c0-0.39,0.2-0.86,0.59-1.41   c0.16-0.16,0.23-0.37,0.23-0.65c0-0.27,0.08-0.53,0.24-0.76c0.47-0.55,0.92-1.13,1.35-1.76c0.43-0.63,0.8-1.25,1.12-1.88   c0.23-0.7,0.61-1.33,1.12-1.88c0.51-0.55,0.96-1.13,1.35-1.76c0.16-0.31,0.27-0.61,0.35-0.88c0.08-0.27,0.28-0.53,0.59-0.76   c0.63-1.25,1.37-2.31,2.23-3.17c0.78-0.94,1.62-1.88,2.52-2.82c0.9-0.94,1.78-1.84,2.64-2.7c0.86-0.7,1.74-1.37,2.64-2   c0.9-0.63,1.78-1.25,2.64-1.88c0.63-0.39,1.27-0.76,1.94-1.12c0.66-0.35,1.35-0.61,2.05-0.76c0.39-0.16,0.76-0.33,1.12-0.53   c0.35-0.19,0.76-0.33,1.23-0.41c0.7-0.08,1.41-0.21,2.11-0.41c0.7-0.19,1.45-0.29,2.23-0.29h0.7c0.16,0,0.35,0.06,0.59,0.18   c0.23,0.12,0.47,0.18,0.7,0.18c0.55,0.23,1.13,0.43,1.76,0.59c0.62,0.16,1.25,0.39,1.88,0.7c0,0.08,0.08,0.12,0.23,0.12h0.47   c0.55,0.16,1.04,0.35,1.47,0.59c0.43,0.23,0.76,0.55,1,0.94c0.39,0.23,0.59,0.39,0.59,0.47l-0.35,0.35v0.12l0.12,0.23l1.64,1.29   c0.16,0.23,0.29,0.41,0.41,0.53c0.12,0.12,0.25,0.26,0.41,0.41c0.23,0.47,0.45,0.9,0.65,1.29c0.19,0.39,0.37,0.78,0.53,1.17   c0.16,0.39,0.23,0.86,0.23,1.41c0,0.23-0.02,0.45-0.06,0.65c-0.04,0.2-0.06,0.37-0.06,0.53c0,0.23,0.04,0.43,0.12,0.59   c0.16,0.31,0.21,0.61,0.18,0.88c-0.04,0.27-0.02,0.53,0.06,0.76c0.24,0.63,0.35,1.17,0.35,1.64c0,0.55-0.04,0.94-0.12,1.17   c-0.08,0.16-0.12,0.43-0.12,0.82c0,0.39,0.04,0.72,0.12,1c0.08,0.28,0.12,0.61,0.12,1v0.23c-0.31,0.63-0.43,1.31-0.35,2.05   c0.08,0.74-0.04,1.43-0.35,2.05v0.23c0,0.39,0.04,0.7,0.12,0.94c0.23,0.23,0.35,0.39,0.35,0.47c0,0.08-0.12,0.23-0.35,0.47   c-0.08,0.08-0.12,0.27-0.12,0.59v0.23c0,0.39-0.08,0.7-0.24,0.94c-0.16,0.23-0.27,0.47-0.35,0.7c-0.08,0.16-0.16,0.29-0.24,0.41   c-0.08,0.12-0.12,0.26-0.12,0.41c0,0.23,0.12,0.39,0.35,0.47v0.35c-0.24,0.39-0.35,0.67-0.35,0.82c0,0.16,0.02,0.29,0.06,0.41   c0.04,0.12,0.06,0.26,0.06,0.41v0.23c0,0.31-0.23,0.78-0.7,1.41v0.12l-0.23-0.23c0-0.16-0.08-0.23-0.24-0.23l-0.12,0.12l-0.12,0.12   c-0.08,0.08-0.12,0.16-0.12,0.23c0,0.23,0.16,0.39,0.47,0.47c0.39,0.16,0.59,0.31,0.59,0.47c0,0.08-0.04,0.16-0.12,0.23   c-0.08,0.08-0.12,0.16-0.12,0.23c-0.08,0.31-0.14,0.55-0.18,0.7c-0.04,0.16-0.06,0.35-0.06,0.59v0.35c0,0.39-0.14,0.69-0.41,0.88   c-0.27,0.2-0.41,0.45-0.41,0.76h-0.24l-0.23-0.12c-0.16-0.16-0.27-0.23-0.35-0.23c-0.08,0.08-0.12,0.16-0.12,0.23   c-0.16,0.39-0.27,0.76-0.35,1.12c-0.08,0.35-0.12,0.69-0.12,1c0,0.16-0.04,0.31-0.12,0.47c0-0.16,0.08-0.23,0.23-0.23h0.12   l0.47-0.94c0-0.08-0.02-0.14-0.06-0.18c-0.04-0.04-0.06-0.1-0.06-0.18c0-0.16,0.12-0.23,0.35-0.23c0.16,0.16,0.23,0.43,0.23,0.82   c-0.08,0.39-0.16,0.78-0.23,1.17c-0.08,0.39-0.16,0.82-0.24,1.29c-0.08,0.16-0.12,0.31-0.12,0.47v0.35c0,0.55-0.23,0.82-0.7,0.82   c-0.16,0.16-0.23,0.27-0.23,0.35c0,0.16,0.04,0.28,0.12,0.35c0.08,0.16,0.12,0.35,0.12,0.59c-0.08,0.39-0.16,0.74-0.23,1.06   c-0.08,0.31-0.24,0.59-0.47,0.82c-0.16,0.23-0.31,0.45-0.47,0.65c-0.16,0.2-0.23,0.37-0.23,0.53v0.47c0,0.39-0.16,0.67-0.47,0.82   c-0.08,0-0.12,0.16-0.12,0.47c0.16,0.16,0.23,0.31,0.23,0.47c0,0.16-0.04,0.37-0.12,0.65c-0.08,0.27-0.16,0.49-0.23,0.65   c-0.08,0-0.12,0.08-0.12,0.23c0,0.16-0.04,0.31-0.12,0.47c-0.16,0.7-0.39,1.33-0.7,1.88c0,0.16-0.08,0.23-0.23,0.23l-0.24-0.12   c-0.39,0-0.67,0.1-0.82,0.29c-0.16,0.2-0.39,0.37-0.7,0.53c0,0.08-0.02,0.16-0.06,0.23c-0.04,0.08-0.06,0.16-0.06,0.23   c0,0.31,0.12,0.51,0.35,0.59h0.7c-0.08,0.08-0.12,0.2-0.12,0.35v0.23c-0.23,0-0.35,0.08-0.35,0.23l0.23,0.47   c0.16,0.31,0.23,0.51,0.23,0.59c-0.23,0.55-0.45,1.14-0.65,1.76c-0.2,0.63-0.8,1.02-1.82,1.17c-0.16,0.16-0.23,0.28-0.23,0.35   c-0.08,0.08-0.12,0.2-0.12,0.35c0,0.08,0.12,0.23,0.35,0.47c0.39,0,0.59,0.04,0.59,0.12c0-0.08-0.2,0.08-0.59,0.47   c-0.08-0.08-0.12-0.16-0.12-0.23l-0.12-0.12l-0.23,0.47c0.23,0,0.43-0.04,0.59-0.12c0.16,0.16,0.29,0.31,0.41,0.47   c0.12,0.16,0.18,0.27,0.18,0.35c0,0.16-0.16,0.23-0.47,0.23c-0.39,0.16-0.59,0.31-0.59,0.47c0,0.08,0.02,0.14,0.06,0.18   c0.04,0.04,0.06,0.14,0.06,0.29v0.59c0,0.55-0.31,0.86-0.94,0.94v-0.23c-0.16-0.16-0.23-0.25-0.23-0.29c0-0.04-0.12-0.14-0.35-0.29   l-0.12,0.12c0,0.08,0.16,0.23,0.47,0.47l0.23,0.23c-0.16,0.39-0.23,0.78-0.23,1.17c0,0.39,0,0.78,0,1.17   c0,0.31-0.08,0.59-0.23,0.82c-0.16,0.23-0.31,0.51-0.47,0.82c-0.08,0.08-0.2,0.12-0.35,0.12h-0.23c-0.16,0.08-0.31,0.12-0.47,0.12   h-0.35c-0.31,0-0.53,0.1-0.65,0.29c-0.12,0.2-0.14,0.29-0.06,0.29c0.16,0.08,0.31,0.12,0.47,0.12c0.16,0,0.31,0,0.47,0l0.23,0.12   c0,0.16-0.04,0.23-0.12,0.23l-0.47,0.7v0.35c0.24,0.16,0.35,0.31,0.35,0.47c0,0.16-0.04,0.27-0.12,0.35   c-0.16,0.23-0.37,0.37-0.65,0.41c-0.28,0.04-0.53,0.14-0.76,0.29c-0.16-0.08-0.23,0.04-0.23,0.35c0.16,0.08,0.31,0.12,0.47,0.12   l0.12-0.12h0.35l0.12,0.12c0,0.08-0.02,0.12-0.06,0.12c-0.04,0-0.06,0.04-0.06,0.12l-0.24,0.23c-0.31,0.16-0.47,0.35-0.47,0.59   c0,0.16,0.08,0.31,0.24,0.47l-0.59,0.35c-0.16-0.16-0.27-0.23-0.35-0.23l-0.23,0.59c0,0.23-0.08,0.43-0.24,0.59   c-0.39,0.31-0.59,0.59-0.59,0.82c0,0.16,0.12,0.39,0.35,0.7h-0.47c-0.23,0-0.35,0.08-0.35,0.23c0.08,0.08,0.12,0.16,0.12,0.23   c0.08-0.16,0.31-0.31,0.7-0.47c0.23-0.08,0.35-0.19,0.35-0.35v-0.23c0-0.08,0.04-0.12,0.12-0.12l0.12-0.23l0.23,0.23   c-0.16,0.31-0.25,0.63-0.29,0.94c-0.04,0.31-0.26,0.55-0.65,0.7c-0.31,0.23-0.61,0.47-0.88,0.7c-0.27,0.23-0.49,0.55-0.65,0.94   c0,0.16-0.02,0.27-0.06,0.35c-0.04,0.08-0.06,0.16-0.06,0.23c0,0.23,0.16,0.39,0.47,0.47l0.59,0.35c0,0.16-0.12,0.28-0.35,0.35   c-0.16,0.23-0.33,0.55-0.53,0.94c-0.2,0.39-0.37,0.78-0.53,1.17c-0.08,0.16-0.14,0.29-0.18,0.41c-0.04,0.12-0.18,0.18-0.41,0.18   h-0.35l-0.23,0.12v0.12c0,0.23,0.08,0.35,0.23,0.35c0.31,0.08,0.47,0.16,0.47,0.23c0,0.08-0.02,0.14-0.06,0.18   c-0.04,0.04-0.06,0.1-0.06,0.18c-0.24,0.23-0.43,0.47-0.59,0.7c0.16,0,0.18,0,0.06,0c-0.12,0-0.18,0.04-0.18,0.12   c0,0.08,0.04,0.16,0.12,0.23c0,0.23-0.2,0.35-0.59,0.35l-0.24,0.12c0.08,0,0.16,0.04,0.24,0.12c0.23,0.23,0.35,0.31,0.35,0.23   c-0.08,0.08-0.12,0.16-0.12,0.23c-0.08,0.08-0.12,0.16-0.12,0.23v0.23c0,0.08-0.04,0.12-0.12,0.12l-0.12,0.23   c0.08,0.08,0.23,0.12,0.47,0.12c0-0.16,0.31-0.35,0.94-0.59c0.08-0.08,0.12-0.27,0.12-0.59l0.23-0.47l0.59-0.35l-0.47-0.47   c-0.16,0-0.24-0.16-0.24-0.47c0-0.16,0.08-0.23,0.24-0.23v0.23c0-0.08,0.04-0.12,0.12-0.12c0.08,0,0.12-0.04,0.12-0.12v-0.23   c0-0.08,0.02-0.12,0.06-0.12c0.04,0,0.06-0.04,0.06-0.12c0.08-0.08,0.12-0.16,0.12-0.23v-0.12h0.12c0.55,0,0.88-0.19,1-0.59   c0.12-0.39,0.41-0.63,0.88-0.7c0.16,0,0.23-0.12,0.23-0.35v-0.12c0-0.08-0.02-0.14-0.06-0.18c-0.04-0.04-0.06-0.14-0.06-0.29   c0-0.16,0.12-0.31,0.35-0.47c0.16,0,0.24-0.14,0.24-0.41c0-0.27,0.19-0.41,0.59-0.41v-0.23c0-0.08,0.02-0.12,0.06-0.12   c0.04,0,0.06-0.04,0.06-0.12c-0.23-0.08-0.35-0.19-0.35-0.35c0-0.16,0.08-0.29,0.24-0.41c0.16-0.12,0.27-0.25,0.35-0.41   c0.39-0.16,0.59-0.27,0.59-0.35c0.08-0.47,0.21-0.84,0.41-1.12c0.19-0.27,0.41-0.57,0.65-0.88c0.31-0.31,0.47-0.55,0.47-0.7   c0-0.16-0.04-0.27-0.12-0.35v-0.23c0-0.39,0.31-0.59,0.94-0.59c0.24,0,0.39,0.04,0.47,0.12c0.16,0.31,0.27,0.47,0.35,0.47   l0.12-0.12v-0.23c0-0.16-0.04-0.23-0.12-0.23c-0.31-0.08-0.47-0.23-0.47-0.47c0-0.08,0.08-0.27,0.23-0.59l0.94-1.41   c0-0.08,0.04-0.12,0.12-0.12c0.16,0,0.25,0.02,0.29,0.06c0.04,0.04,0.1,0.06,0.18,0.06h0.35c0.24,0,0.35-0.04,0.35-0.12   c0-0.16-0.12-0.35-0.35-0.59c0.31-0.16,0.45-0.37,0.41-0.65C199.28,263.72,199.34,263.43,199.5,263.11z M169.57,241.99   c0,0.08-0.04,0.12-0.12,0.12h0.47c-0.16,0-0.24-0.02-0.24-0.06C169.69,242.01,169.65,241.99,169.57,241.99z M170.51,316.64   c0-0.08-0.04-0.12-0.12-0.12c0,0.23-0.04,0.43-0.12,0.59l0.12,0.12c0-0.08,0.02-0.16,0.06-0.23   C170.49,316.91,170.51,316.79,170.51,316.64z M170.98,315.58v-0.23h-0.35l-0.12,0.23v0.12c0,0.16,0.02,0.25,0.06,0.29   c0.04,0.04,0.06,0.1,0.06,0.18c0.08-0.08,0.12-0.16,0.12-0.23C170.9,315.78,170.98,315.66,170.98,315.58z M170.74,314.29v0.35h0.24   c0.08,0,0.12-0.04,0.12-0.12v-0.12v-0.12c0-0.08,0.02-0.16,0.06-0.23c0.04-0.08,0.06-0.16,0.06-0.23c0-0.16-0.04-0.23-0.12-0.23   c-0.08,0.08-0.12,0.18-0.12,0.29S170.9,314.13,170.74,314.29z M172.5,312.06l0.47-0.59v-0.12c-0.08-0.08-0.2-0.12-0.35-0.12   c-0.08,0.08-0.19,0.12-0.35,0.12c-0.16,0-0.24-0.12-0.24-0.35c-0.23,0.16-0.43,0.21-0.59,0.18c-0.16-0.04-0.23,0.02-0.23,0.18   c0,0.08,0.04,0.16,0.12,0.23c0.16,0.16,0.22,0.29,0.18,0.41c-0.04,0.12-0.02,0.18,0.06,0.18c0.08-0.08,0.16-0.12,0.24-0.12v-0.12   v-0.12h0.12c0.08,0,0.16-0.04,0.23-0.12l0.12-0.12C172.43,311.59,172.5,311.75,172.5,312.06z M171.56,243.04h-0.23l0.12-0.12   C171.53,242.92,171.56,242.96,171.56,243.04z M171.45,312.88l-0.12,0.12v0.12C171.41,313.04,171.45,312.96,171.45,312.88z    M171.8,314.52v-0.12l-0.12,0.12C171.68,314.6,171.72,314.6,171.8,314.52z M172.5,309.48c0-0.16,0.02-0.31,0.06-0.47   c0.04-0.16,0.14-0.23,0.29-0.23h0.35c-0.16-0.08-0.23-0.16-0.23-0.23v-0.12c0-0.08,0.04-0.16,0.12-0.23c0-0.08,0.04-0.12,0.12-0.12   v-0.35c0-0.08,0.08-0.2,0.24-0.35c0-0.08,0.02-0.16,0.06-0.23c0.04-0.08,0.06-0.16,0.06-0.23c-0.24,0.23-0.35,0.31-0.35,0.23   c-0.23,0.16-0.35,0.29-0.35,0.41c0,0.12-0.08,0.29-0.24,0.53c-0.23,0.39-0.37,0.82-0.41,1.29c-0.04,0.47-0.1,1.02-0.18,1.64   c0.16-0.23,0.27-0.43,0.35-0.59c0.08-0.16,0.12-0.35,0.12-0.59V309.48z M172.15,313.7v-0.23c-0.08,0-0.12,0.04-0.12,0.12   L172.15,313.7z M172.5,312.06c-0.23,0-0.35,0.08-0.35,0.23c0,0.39,0.08,0.59,0.24,0.59c0.16,0,0.23-0.08,0.23-0.23   c0-0.08-0.02-0.14-0.06-0.18c-0.04-0.04-0.06-0.14-0.06-0.29V312.06z M173.56,305.6c-0.08,0.08-0.12,0.35-0.12,0.82h0.12   c0.08-0.23,0.16-0.41,0.23-0.53c0.08-0.12,0.12-0.22,0.12-0.29l0.12-0.12c-0.08-0.08-0.12-0.16-0.12-0.23   c-0.08,0.08-0.14,0.12-0.18,0.12C173.7,305.37,173.64,305.45,173.56,305.6z M174.26,304.9c-0.16,0-0.27-0.08-0.35-0.23v0.47   C173.83,305.13,173.95,305.06,174.26,304.9z M174.03,303.96c0.31,0.16,0.43,0.23,0.35,0.23c0-0.08,0.02-0.14,0.06-0.18   c0.04-0.04,0.06-0.1,0.06-0.18c0-0.08-0.02-0.14-0.06-0.18c-0.04-0.04-0.06-0.1-0.06-0.18L174.03,303.96z M175.44,301.14   c-0.7,0.7-1.06,1.49-1.06,2.35C175.09,302.79,175.44,302,175.44,301.14z M175.32,303.49l0.12-0.23h-0.35   C175.24,303.26,175.32,303.33,175.32,303.49z M175.56,300.91c0-0.31,0.12-0.59,0.35-0.82c0.23-0.23,0.35-0.51,0.35-0.82   c0-0.08,0.06-0.18,0.18-0.29c0.12-0.12,0.18-0.29,0.18-0.53h0.12c0.08,0,0.23,0.2,0.47,0.59c0.47-0.47,0.7-0.9,0.7-1.29   c0-0.16-0.04-0.31-0.12-0.47c0,0.39-0.24,0.74-0.7,1.06l-0.12-0.12c-0.08,0-0.12-0.04-0.12-0.12c-0.08,0-0.12-0.08-0.12-0.23   c0.39-0.23,0.65-0.57,0.76-1c0.12-0.43,0.25-0.92,0.41-1.47c0.16-0.16,0.25-0.35,0.29-0.59c0.04-0.23,0.1-0.43,0.18-0.59   c0-0.08,0.04-0.14,0.12-0.18c0.08-0.04,0.12-0.1,0.12-0.18l-0.12-0.12h-0.12h-0.35c-0.16,0.47-0.29,0.92-0.41,1.35   c-0.12,0.43-0.29,0.92-0.53,1.47c-0.08,0.16-0.18,0.33-0.29,0.53c-0.12,0.2-0.18,0.37-0.18,0.53c-0.16,0.23-0.26,0.43-0.29,0.59   c-0.04,0.16-0.1,0.39-0.18,0.7c-0.39,0.31-0.61,0.66-0.65,1.06c-0.04,0.39-0.06,0.78-0.06,1.17c0-0.08,0.02-0.12,0.06-0.12   C175.54,301.03,175.56,300.99,175.56,300.91z M177.55,299.5v-0.12c-0.31,0-0.51,0.04-0.59,0.12c-0.16,0.39-0.29,0.76-0.41,1.12   c-0.12,0.35-0.26,0.76-0.41,1.23v0.23c0.08,0,0.12-0.02,0.12-0.06c0-0.04,0.08-0.06,0.24-0.06c0.16-0.7,0.27-1.1,0.35-1.17   c0.08-0.23,0.18-0.45,0.29-0.65C177.26,299.95,177.39,299.73,177.55,299.5z M177.67,294.34c0-0.23-0.04-0.35-0.12-0.35   c-0.23,0-0.39-0.04-0.47-0.12v0.35c0,0.08,0.04,0.12,0.12,0.12H177.67z M178.14,296.92c0-0.08-0.04-0.16-0.12-0.23   c0,0.08-0.02,0.1-0.06,0.06c-0.04-0.04-0.06-0.02-0.06,0.06c0,0.16-0.04,0.31-0.12,0.47C178.02,297.27,178.14,297.15,178.14,296.92   z M180.37,289.64h-0.24v-0.23c-0.08,0.23-0.31,0.55-0.7,0.94c-0.23,0.39-0.41,0.82-0.53,1.29c-0.12,0.47-0.37,0.94-0.76,1.41   l0.24,0.23c0.08,0.08,0.16,0.12,0.23,0.12h0.12c0.08,0,0.12-0.08,0.12-0.23l0.35-1.06c0.16-0.16,0.31-0.35,0.47-0.59   c0.16-0.23,0.27-0.43,0.35-0.59C180.17,290.15,180.29,289.72,180.37,289.64z M179.08,296.33c-0.16-0.23-0.24-0.51-0.24-0.82   l-0.23-0.23c0,0.16-0.08,0.23-0.23,0.23c0,0.16-0.02,0.27-0.06,0.35c-0.04,0.08-0.06,0.16-0.06,0.23c0,0.08,0.04,0.16,0.12,0.23   H179.08z M180.95,292.81c0-0.31-0.16-0.47-0.47-0.47c-0.08,0-0.14,0.02-0.18,0.06c-0.04,0.04-0.1,0.06-0.18,0.06   c-0.08,0-0.12,0.04-0.12,0.12l-0.12,0.23c-0.31,0.31-0.55,0.65-0.7,1c-0.16,0.35-0.27,0.61-0.35,0.76v0.23   c0,0.08,0.04,0.16,0.12,0.23c0.16,0,0.47-0.16,0.94-0.47c0.08,0,0.12-0.04,0.12-0.12l-0.12-0.12c-0.23-0.23-0.35-0.39-0.35-0.47   c0-0.16,0.08-0.29,0.23-0.41c0.16-0.12,0.27-0.25,0.35-0.41c0-0.08,0.04-0.12,0.12-0.12c0,0.16,0.02,0.23,0.06,0.23   c0.04,0,0.06,0.04,0.06,0.12c0,0.08-0.02,0.12-0.06,0.12c-0.04,0-0.06,0.04-0.06,0.12v0.12c0.39,0,0.55-0.04,0.47-0.12   c-0.08-0.08-0.04-0.19,0.12-0.35C180.91,293.08,180.95,292.97,180.95,292.81z M180.95,290.46l-0.12-0.12l-0.24,0.12v0.12   c-0.16,0.31-0.23,0.51-0.23,0.59c0,0.16-0.06,0.27-0.18,0.35c-0.12,0.08-0.18,0.2-0.18,0.35c0,0.08,0.02,0.12,0.06,0.12   c0.04,0,0.06,0.04,0.06,0.12c0.24-0.23,0.47-0.59,0.7-1.06C180.91,291.05,180.95,290.85,180.95,290.46z M180.84,288.58   c0.16-0.08,0.23-0.31,0.23-0.7C180.91,288.19,180.84,288.43,180.84,288.58z M181.19,287.53v-0.23l-0.12,0.12v0.12H181.19z    M181.19,289.76c0,0.16,0.04,0.23,0.12,0.23c0.08-0.08,0.12-0.16,0.12-0.23l-0.24-0.23V289.76z M182.01,287.76v-0.12h-0.35   c-0.16,0.63-0.23,1.02-0.23,1.17v0.35L182.01,287.76z M181.89,285.06h0.12l0.7-2c0-0.08-0.12-0.12-0.35-0.12h-0.35   c0.08,0.23,0.12,0.47,0.12,0.7c0,0.16-0.08,0.47-0.24,0.94c0,0.08-0.04,0.12-0.12,0.12l-0.23,0.23   C181.62,285.02,181.74,285.06,181.89,285.06z M181.89,285.41h-0.23c0,0.08-0.02,0.16-0.06,0.23c-0.04,0.08-0.06,0.2-0.06,0.35   C181.54,285.85,181.66,285.65,181.89,285.41z M182.36,286.71c0-0.16-0.04-0.23-0.12-0.23c-0.16,0.08-0.23,0.2-0.23,0.35v0.23   L182.36,286.71z M182.72,282.83c0.31-0.08,0.47-0.19,0.47-0.35l-0.35-0.35l-0.47,0.35L182.72,282.83z M183.77,284.95   c0-0.39-0.04-0.59-0.12-0.59c0,0.08-0.04,0.12-0.12,0.12h-0.23c-0.55,0-0.82,0.2-0.82,0.59c0.24,0.23,0.47,0.35,0.7,0.35h0.12   c0.16,0,0.31-0.08,0.47-0.23V284.95z M183.42,282.01c0.08-0.16,0.12-0.31,0.12-0.47l0.94-2.23v-0.23h-0.35   c-0.16,0.39-0.29,0.84-0.41,1.35c-0.12,0.51-0.25,0.96-0.41,1.35v0.12C183.3,281.97,183.34,282.01,183.42,282.01z M184.71,282.83   h-0.12c-0.24,0-0.51-0.16-0.82-0.47c0,0.16-0.02,0.26-0.06,0.29c-0.04,0.04-0.06,0.1-0.06,0.18c-0.08,0.16-0.12,0.43-0.12,0.82   l-0.23,0.35c0.08,0,0.19-0.08,0.35-0.23l0.12-0.23c0.31,0,0.55-0.08,0.71-0.23C184.63,283.15,184.71,282.99,184.71,282.83z    M184.12,288c-0.16,0-0.23-0.02-0.23-0.06c0-0.04-0.04-0.06-0.12-0.06l-0.12,0.12c0,0.08-0.02,0.12-0.06,0.12   c-0.04,0-0.06,0.04-0.06,0.12c0.08,0.08,0.16,0.12,0.23,0.12C183.77,288.27,183.89,288.15,184.12,288z M184.12,286.94h-0.35   c0.16,0.31,0.31,0.47,0.47,0.47l0.24-0.23C184.48,287.02,184.36,286.94,184.12,286.94z M184.71,280.95   c-0.31,0.16-0.51,0.47-0.59,0.94c-0.16,0-0.2,0.02-0.12,0.06c0.08,0.04,0.12,0.1,0.12,0.18l0.23-0.23c0-0.16,0.04-0.31,0.12-0.47   C184.55,281.27,184.63,281.11,184.71,280.95z M184.71,286.82l0.23-0.7l-0.12-0.12l-0.35,0.7   C184.55,286.71,184.63,286.75,184.71,286.82z M185.18,277.9c-0.16,0.08-0.31,0.12-0.47,0.12c0,0.08,0.04,0.12,0.12,0.12   L185.18,277.9z M184.95,278.61l-0.12-0.12c-0.08,0-0.12,0.04-0.12,0.12H184.95z M185.53,284.36c-0.08,0-0.14-0.02-0.18-0.06   c-0.04-0.04-0.1-0.06-0.18-0.06c-0.24,0-0.35,0.23-0.35,0.7c0,0.16,0.04,0.23,0.12,0.23h0.35c0.08,0,0.16,0.04,0.23,0.12l0.47-0.47   c-0.16-0.16-0.26-0.25-0.29-0.29C185.67,284.5,185.61,284.44,185.53,284.36z M185.3,277.79h-0.12v0.12   C185.18,277.83,185.22,277.79,185.3,277.79z M185.53,279.08h-0.35l0.12,0.12c0.08,0,0.12-0.02,0.12-0.06   C185.41,279.1,185.45,279.08,185.53,279.08z M185.77,280.02h-0.35l-0.23-0.12v0.7h0.12C185.53,280.6,185.69,280.41,185.77,280.02z    M185.53,276.96l-0.12,0.12l0.12,0.23V276.96z M185.53,274.73v1.53c0,0.08,0.04,0.16,0.12,0.23c0-0.08,0.02-0.12,0.06-0.12   c0.04,0,0.06-0.04,0.06-0.12c0-0.08-0.02-0.19-0.06-0.35c-0.04-0.16-0.06-0.31-0.06-0.47c0-0.23,0.04-0.39,0.12-0.47   c0.08-0.31,0.27-0.47,0.59-0.47c0.08,0,0.18,0.02,0.29,0.06c0.12,0.04,0.29,0.06,0.53,0.06c0.31,0,0.51-0.04,0.59-0.12   c0.39-0.16,0.61-0.35,0.65-0.59c0.04-0.23,0.1-0.55,0.18-0.94l-0.35-0.23c-0.08,0-0.12,0.04-0.12,0.12c0,0.08-0.04,0.12-0.12,0.12   h-0.12v-0.23c-0.16-0.23-0.27-0.35-0.35-0.35c-0.24,0-0.35,0.08-0.35,0.23c-0.08,0.08-0.12,0.27-0.12,0.59l-0.47,0.35v-1.06   c-0.39,0.31-0.63,0.67-0.7,1.06C185.81,273.95,185.69,274.34,185.53,274.73z M185.53,279.08c0.16-0.16,0.24-0.31,0.24-0.47v-0.47   c-0.08,0-0.12,0.04-0.12,0.12C185.57,278.65,185.53,278.92,185.53,279.08z M186.12,277.55c0-0.08-0.04-0.16-0.12-0.23l-0.12,0.12   v0.12H186.12z M187.18,282.95c0-0.31-0.16-0.47-0.47-0.47c-0.08,0-0.27,0.08-0.59,0.23v0.23c0,0.31,0.08,0.51,0.24,0.59   c0,0.08,0.08,0.12,0.23,0.12h0.23L187.18,282.95z M186.94,275.91l-0.59,0.7c-0.16,0-0.2,0.02-0.12,0.06   c0.08,0.04,0.12,0.14,0.12,0.29c0.08-0.08,0.19-0.16,0.35-0.23c0.16-0.08,0.24-0.16,0.24-0.23V275.91z M186.71,277.9l-0.23,0.23   h0.23l0.24-0.12C186.86,277.94,186.78,277.9,186.71,277.9z M186.82,272.27c0.08-0.16,0.14-0.31,0.18-0.47   c0.04-0.16,0.1-0.27,0.18-0.35c-0.08-0.08-0.12-0.16-0.12-0.23v-0.12c-0.08,0-0.12,0.02-0.12,0.06c0,0.04-0.04,0.06-0.12,0.06   h-0.23C186.59,271.76,186.67,272.11,186.82,272.27z M187.06,275.09l-0.12-0.12l-0.12,0.12c-0.08,0.08-0.12,0.16-0.12,0.23   c0,0.23,0.08,0.43,0.24,0.59v-0.35C186.94,275.32,186.98,275.16,187.06,275.09z M187.41,282.36l0.35-0.35   c0-0.16-0.12-0.23-0.35-0.23c-0.08,0-0.14,0.02-0.18,0.06c-0.04,0.04-0.1,0.06-0.18,0.06l-0.12,0.12l0.12,0.12   C187.21,282.29,187.33,282.36,187.41,282.36z M187.41,269.92l0.12,0.12h0.12c0.16-0.31,0.31-0.55,0.47-0.7h0.12   c0.08-0.08,0.16-0.12,0.23-0.12c0.08,0,0.12,0.16,0.12,0.47h0.24l0.82-0.82v-0.23c0-0.39,0.12-0.7,0.35-0.94v-0.47l-0.12,0.23   h-0.12c-0.63,0.47-0.94,0.86-0.94,1.17v0.12c0,0.08-0.12,0.16-0.35,0.23v-0.47c0.16-0.31,0.27-0.66,0.35-1.06   c0.08-0.39,0.19-0.74,0.35-1.06c0.08-0.23,0.12-0.51,0.12-0.82c-0.55,0.63-0.9,1.33-1.06,2.11   C188.07,268.47,187.8,269.22,187.41,269.92z M187.76,278.02l0.12,0.12v-0.12H187.76z M188.11,271.45c0.16-0.31,0.27-0.47,0.35-0.47   v-0.12c-0.08,0-0.16-0.04-0.23-0.12c-0.08,0.08-0.12,0.16-0.12,0.23V271.45z M188.58,276.14c0.08,0,0.12-0.02,0.12-0.06   c0-0.04,0.04-0.06,0.12-0.06h0.12v-0.23c0-0.08,0.02-0.16,0.06-0.23c0.04-0.08,0.06-0.16,0.06-0.23l-0.47,0.59V276.14z    M188.7,271.8v0.47c0.24-0.23,0.35-0.31,0.35-0.23c0-0.16,0.02-0.27,0.06-0.35c0.04-0.08,0.06-0.16,0.06-0.23L188.7,271.8z    M189.41,271.09l-0.24-0.12v0.23C189.25,271.14,189.33,271.09,189.41,271.09z M190.11,262.17c-0.08,0.08-0.12,0.2-0.12,0.35v0.12   c0,0.08,0.08,0.2,0.23,0.35c-0.55,0-0.82,0.08-0.82,0.23c0,0.08,0.04,0.18,0.12,0.29c0.08,0.12,0.16,0.26,0.23,0.41   c-0.16,0.23-0.31,0.35-0.47,0.35l0.7,0.35c-0.16-0.31-0.24-0.55-0.24-0.7c0.16-0.47,0.31-0.78,0.47-0.94   c0.08-0.08,0.16-0.12,0.23-0.12h0.24c0.16-0.16,0.31-0.23,0.47-0.23c0.08,0,0.12,0.08,0.12,0.23v0.23c0.23,0,0.41,0.04,0.53,0.12   c0.12,0.08,0.25,0.12,0.41,0.12c-0.08,0,0.08-0.19,0.47-0.59h-0.47c-0.08,0-0.16-0.04-0.23-0.12l0.12-0.23   c0.31-0.08,0.47-0.19,0.47-0.35c0-0.08-0.08-0.27-0.24-0.59l-0.23-0.35c-0.16,0.08-0.31,0.16-0.47,0.23   c-0.16,0.08-0.31,0.12-0.47,0.12c-0.08,0-0.14-0.02-0.18-0.06c-0.04-0.04-0.1-0.06-0.18-0.06c-0.31,0-0.49,0.1-0.53,0.29   C190.25,261.84,190.19,262.02,190.11,262.17z M189.64,273.91c-0.16,0-0.23,0.02-0.23,0.06c0,0.04-0.04,0.06-0.12,0.06l0.12,0.12   h0.23l0.23-0.23H189.64z M189.64,265.23l-0.23-0.23v0.35h0.12C189.6,265.34,189.64,265.3,189.64,265.23z M190.34,259.94h-0.35   c0,0.08,0.02,0.12,0.06,0.12c0.04,0,0.06,0.04,0.06,0.12C190.11,260.02,190.19,259.94,190.34,259.94z M189.99,264.64   c0.23,0.31,0.39,0.47,0.47,0.47c0.24,0,0.39-0.16,0.47-0.47c0.16-0.16,0.24-0.33,0.24-0.53c0-0.19,0.19-0.37,0.59-0.53   c0-0.16-0.16-0.31-0.47-0.47c-0.08,0.08-0.18,0.12-0.29,0.12c-0.12,0-0.18,0.04-0.18,0.12c0,0.39-0.1,0.67-0.29,0.82   C190.32,264.33,190.15,264.48,189.99,264.64z M190.23,266.05l-0.23,0.47v0.23l0.23-0.23V266.05z M190.11,262.17l0.12,0.12h-0.12   V262.17z M190.46,268.75c-0.08-0.08-0.12-0.19-0.12-0.35l-0.12,0.12c0,0.08-0.04,0.12-0.12,0.12v0.23c0.08,0,0.14-0.02,0.18-0.06   C190.32,268.77,190.38,268.75,190.46,268.75z M190.23,266.05c0-0.08,0.08-0.19,0.23-0.35c-0.08,0-0.12-0.04-0.12-0.12l-0.12,0.12   V266.05z M190.34,259.94l0.12-0.12C190.38,259.83,190.34,259.87,190.34,259.94z M191.17,267.34l-0.24-0.12l-0.47,0.23l0.24,0.23   C190.93,267.53,191.09,267.42,191.17,267.34z M191.75,261.94c-0.16,0.08-0.31,0.12-0.47,0.12c-0.08,0-0.12,0.04-0.12,0.12   l-0.12-0.12v-0.23c0.08,0,0.16,0.02,0.24,0.06C191.36,261.92,191.52,261.94,191.75,261.94z M191.75,265.46   c0-0.08-0.08-0.16-0.23-0.23v0.12c-0.23,0.31-0.39,0.67-0.47,1.06l0.7-0.7V265.46z M191.28,259.83c0,0.08-0.02,0.12-0.06,0.12   c-0.04,0-0.06,0.04-0.06,0.12c0.08,0.16,0.12,0.35,0.12,0.59c0.08-0.16,0.18-0.25,0.29-0.29c0.12-0.04,0.21-0.1,0.29-0.18   l0.59-2.35c0.23-0.7,0.49-1.39,0.76-2.05c0.27-0.66,0.61-1.39,1-2.17v-0.23c0-0.16-0.16-0.23-0.47-0.23h-0.35   c-0.08,0-0.12,0.04-0.12,0.12v0.35c0,0.39-0.06,0.7-0.18,0.94c-0.12,0.23-0.26,0.55-0.41,0.94c-0.16,0.16-0.23,0.35-0.23,0.59   c0,0.63-0.16,1.25-0.47,1.88c-0.16,0.39-0.31,0.7-0.47,0.94C191.36,259.12,191.28,259.44,191.28,259.83z M193.16,261.24h0.23V261   l-0.94-0.7c0,0.16-0.08,0.39-0.24,0.7l-0.12,0.12c0.31-0.16,0.51-0.23,0.59-0.23C192.85,260.88,193,261,193.16,261.24z    M193.75,256.89h-0.12c0-0.16,0.02-0.23,0.06-0.23c0.04,0,0.06-0.04,0.06-0.12c0-0.08,0.04-0.14,0.12-0.18   c0.08-0.04,0.12-0.1,0.12-0.18l-0.47,0.23c-0.16,0.47-0.31,0.9-0.47,1.29c-0.16,0.39-0.31,0.86-0.47,1.41v0.23   c0,0.23,0.04,0.35,0.12,0.35c0.08-0.08,0.16-0.12,0.23-0.12L193.75,256.89z M193.16,263.82v0.12l0.23-0.12H193.16z M197.04,248.09   l0.59-0.23c-0.08-0.16-0.12-0.31-0.12-0.47c0-0.16,0.04-0.27,0.12-0.35c0.08-0.08,0.12-0.19,0.12-0.35c0-0.08-0.16-0.12-0.47-0.12   c-0.39,0-0.59-0.04-0.59-0.12c0-0.08,0.04-0.19,0.12-0.35v-0.47c-0.08,0.08-0.16,0.12-0.24,0.12h-0.23v0.23   c0,0.23-0.1,0.43-0.29,0.59c-0.2,0.16-0.29,0.31-0.29,0.47c0,0.16,0.04,0.28,0.12,0.35v0.12c-0.31,0-0.47,0.12-0.47,0.35   c0,0.16,0.02,0.27,0.06,0.35c0.04,0.08,0.06,0.16,0.06,0.23v0.12c-0.47,0.47-0.74,0.98-0.82,1.53c-0.08,0.55-0.23,1.1-0.47,1.64   c-0.08,0-0.12,0.08-0.12,0.23c0,0.23,0.24,0.51,0.7,0.82c0.16,0,0.24,0.2,0.24,0.59c0.39-0.08,0.59-0.27,0.59-0.59   c0-0.31,0.08-0.59,0.23-0.82v-0.12c0-0.08-0.02-0.16-0.06-0.23c-0.04-0.08-0.06-0.16-0.06-0.23c-0.16,0-0.27,0.16-0.35,0.47   c-0.08,0-0.12,0.04-0.12,0.12v0.23h-0.47c-0.08-0.08-0.08-0.12,0-0.12c0.16-0.39,0.24-0.84,0.24-1.35c0-0.51,0.23-0.92,0.7-1.23   l0.23,0.7v0.47c0.16-0.08,0.27-0.1,0.35-0.06c0.08,0.04,0.12-0.02,0.12-0.18L197.04,248.09z M194.57,253.72   c-0.08,0.31-0.14,0.61-0.18,0.88c-0.04,0.28-0.06,0.61-0.06,1c0,0.08,0.04,0.12,0.12,0.12l0.12-0.12c0.23-0.23,0.37-0.49,0.41-0.76   c0.04-0.27,0.06-0.53,0.06-0.76v-0.7C194.73,253.53,194.57,253.65,194.57,253.72z M195.74,257.36c-0.08-0.08-0.12-0.16-0.12-0.23   c-0.08,0-0.12,0.08-0.12,0.23l-0.82,2.23c0,0.23,0.12,0.39,0.35,0.47c0-0.08,0.02-0.12,0.06-0.12c0.04,0,0.06-0.04,0.06-0.12   c0.16-0.39,0.25-0.78,0.29-1.17C195.49,258.26,195.59,257.83,195.74,257.36z M195.74,249.5c0-0.31,0.04-0.51,0.12-0.59l0.47-0.23   c0.16,0.16,0.23,0.35,0.23,0.59c-0.16,0.08-0.31,0.12-0.47,0.12C195.94,249.38,195.82,249.42,195.74,249.5z M197.27,244.57   l-0.47-0.35c-0.24,0.23-0.39,0.35-0.47,0.35l0.35,0.47c0.08-0.08,0.16-0.14,0.23-0.18C196.99,244.82,197.11,244.73,197.27,244.57z    M196.57,255.72v-0.12l-0.12,0.12H196.57z M196.68,247.15c0.08,0.08,0.16,0.12,0.23,0.12c-0.08,0.08-0.16,0.12-0.23,0.12   c-0.08,0-0.12-0.04-0.12-0.12L196.68,247.15z M197.04,248.09h-0.12c-0.23-0.23-0.35-0.31-0.35-0.23v-0.12   c0-0.08,0.04-0.12,0.12-0.12h0.12C196.96,247.62,197.04,247.78,197.04,248.09z M198.09,241.52l-0.24-0.47l-0.12,0.12h-0.12   c-0.16,0.39-0.27,0.78-0.35,1.17c-0.08,0.39-0.2,0.74-0.35,1.06v0.35c0.23,0,0.43-0.08,0.59-0.23c0.23-0.16,0.35-0.43,0.35-0.82   C197.86,242.3,197.93,241.91,198.09,241.52z M197.04,253.84v0.12h0.24v-0.12H197.04z M197.86,250.91l-0.23,0.23l0.12,0.12   l0.24-0.23L197.86,250.91z M199.27,242.45l-0.24-0.23h-0.35c-0.08,0.63-0.31,1.37-0.7,2.23v0.12c0,0.08,0.02,0.12,0.06,0.12   c0.04,0,0.06,0.04,0.06,0.12l0.35-0.23c0.08-0.31,0.16-0.61,0.24-0.88c0.08-0.27,0.27-0.49,0.59-0.65V242.45z M198.8,239.64   l-0.23,0.12c-0.08,0-0.12,0.04-0.12,0.12v0.47c0.16,0,0.24-0.12,0.24-0.35v-0.12C198.68,239.8,198.72,239.72,198.8,239.64z    M199.85,240.11c0-0.16-0.04-0.27-0.12-0.35c0,0.08-0.04,0.12-0.12,0.12c-0.08,0-0.12,0.04-0.12,0.12   c-0.16,0.23-0.23,0.43-0.23,0.59c0,0.16-0.04,0.28-0.12,0.35v0.82l0.47-0.7C199.77,240.73,199.85,240.42,199.85,240.11z    M199.5,263.11c-0.23-0.08-0.35-0.16-0.35-0.23l0.35-0.23V263.11z M199.97,235.53h-0.23c0,0.16-0.02,0.25-0.06,0.29   c-0.04,0.04-0.06,0.14-0.06,0.29c0.08,0,0.16,0.04,0.24,0.12c0-0.16,0.02-0.25,0.06-0.29c0.04-0.04,0.06-0.1,0.06-0.18V235.53z    M200.32,246.09c-0.08,0.31-0.2,0.47-0.35,0.47h-0.12l0.35-0.7l0.12,0.12V246.09z M200.09,239.4c0.16-0.47,0.24-0.66,0.24-0.59   c0-0.16-0.04-0.23-0.12-0.23c-0.16,0-0.23,0.08-0.23,0.23C199.89,238.82,199.93,239.01,200.09,239.4z M199.97,235.53   c0-0.08,0.02-0.12,0.06-0.12c0.04,0,0.06-0.04,0.06-0.12l-0.12-0.12V235.53z M200.32,237.64l-0.12,0.23c0,0.08,0.04,0.12,0.12,0.12   V237.64z M200.32,237.64c0.31-0.08,0.47-0.19,0.47-0.35c0-0.08-0.04-0.16-0.12-0.23C200.67,237.21,200.56,237.41,200.32,237.64z    M200.91,236l-0.23,0.23v0.82c0.16-0.08,0.23-0.27,0.23-0.59V236z M201.73,235.18l-0.47-0.23h-0.23v0.94   C201.5,235.8,201.73,235.57,201.73,235.18z M202.08,233.77l-0.12-0.12c-0.08,0-0.12,0.04-0.12,0.12H202.08z M202.55,230.6   c-0.08,0.16-0.23,0.43-0.47,0.82c0,0.16-0.02,0.31-0.06,0.47c-0.04,0.16-0.06,0.35-0.06,0.59c0,0.16,0.02,0.25,0.06,0.29   c0.04,0.04,0.06,0.1,0.06,0.18c0.24-0.23,0.35-0.31,0.35-0.23l0.47-1.76L202.55,230.6z M203.37,216.4h-0.35l0.12-0.12   c0.08,0,0.12,0.02,0.12,0.06C203.26,216.38,203.29,216.4,203.37,216.4z M230.84,226.02c-0.08,0-0.12-0.04-0.12-0.12   c0,0.08-0.04,0.12-0.12,0.12l0.12,0.12v0.12L230.84,226.02z M234.13,304.31c0-0.16,0-0.37,0-0.65c0-0.28-0.04-0.49-0.12-0.65   l-0.35-1.17c0-0.08,0.02-0.12,0.06-0.12c0.04,0,0.06-0.04,0.06-0.12v-0.12c-0.16-0.63-0.23-1.02-0.23-1.17   c0-0.39,0.08-0.98,0.23-1.76c0-0.16-0.02-0.35-0.06-0.59c-0.04-0.23-0.06-0.43-0.06-0.59v-0.7c0-0.31,0.04-0.51,0.12-0.59   c0.08-0.16,0.12-0.39,0.12-0.7c0-0.47-0.04-0.78-0.12-0.94c0.24-0.16,0.35-0.43,0.35-0.82v-0.59c0-0.31-0.02-0.59-0.06-0.82   c-0.04-0.23-0.06-0.47-0.06-0.7s0.08-0.59,0.23-1.06v-0.59c-0.16-0.16-0.27-0.23-0.35-0.23v-0.12l-0.12-0.12v0.12   c0,0.08,0.04,0.12,0.12,0.12v0.35c0,0.39-0.06,0.76-0.18,1.12c-0.12,0.35-0.18,0.72-0.18,1.11c0,0.16,0.08,0.47,0.23,0.94   c-0.23,0.16-0.35,0.31-0.35,0.47c0,0.16,0.04,0.29,0.12,0.41c0.08,0.12,0.16,0.26,0.23,0.41c-0.39,0-0.59,0.16-0.59,0.47v3.64   c0,0.31,0,0.67,0,1.06c0,0.39-0.08,0.7-0.23,0.94v0.47c0,0.39,0.23,0.66,0.7,0.82c-0.16,0.31-0.23,0.55-0.23,0.7   c0,0.47,0.04,0.86,0.12,1.17C233.54,303.96,233.73,304.15,234.13,304.31z M233.77,288.47c0,0.23,0.04,0.39,0.12,0.47   c0,0.08,0.12,0.23,0.35,0.47v-0.35c0-0.16,0.04-0.31,0.12-0.47c0.08-0.16,0.12-0.31,0.12-0.47c0-0.08-0.04-0.14-0.12-0.18   c-0.08-0.04-0.12-0.14-0.12-0.29c-0.23,0.16-0.39,0.28-0.47,0.35V288.47z M234.6,284.12c-0.08,0-0.18-0.02-0.29-0.06   c-0.12-0.04-0.22-0.06-0.29-0.06v0.12c0,0.16,0.08,0.27,0.23,0.35c0.16,0.08,0.23,0.2,0.23,0.35c0,0.08-0.08,0.16-0.23,0.23v0.12   c0,0.16,0.04,0.29,0.12,0.41c0.08,0.12,0.16,0.26,0.24,0.41v-0.12c0.23-0.23,0.35-0.51,0.35-0.82   C234.95,284.67,234.83,284.36,234.6,284.12z M234.24,296.21l0.23,0.12v-0.12H234.24z M234.71,294.45l-0.12-0.23l-0.12,0.23   c0.08,0,0.16,0.04,0.24,0.12V294.45z M234.6,284.12c0.08-0.08,0.19-0.12,0.35-0.12l-0.12-0.12L234.6,284.12z M235.89,281.42   l-0.47-0.59h-0.47v0.35c0,0.23-0.08,0.51-0.23,0.82c0.08,0.08,0.12,0.16,0.12,0.23c0.08,0,0.12-0.04,0.12-0.12   c0.16-0.16,0.31-0.27,0.47-0.35C235.57,281.7,235.73,281.58,235.89,281.42z M235.07,283.18c-0.08-0.08-0.2-0.12-0.35-0.12v0.23   c0.08,0,0.16,0.04,0.23,0.12C234.95,283.34,234.99,283.26,235.07,283.18z M234.71,305.72c0.16,0,0.31,0.19,0.47,0.59h0.23v-0.35   l-0.35-0.23l-0.12-0.12c-0.08,0-0.12-0.04-0.12-0.12C234.75,305.56,234.71,305.64,234.71,305.72z M234.95,289.88   c0,0.08,0.02,0.12,0.06,0.12c0.04,0,0.06,0.04,0.06,0.12c0.24,0,0.35-0.04,0.35-0.12c0-0.31,0.08-0.55,0.23-0.7h-0.12h-0.12h-0.23   c-0.08,0-0.12-0.04-0.12-0.12l-0.12,0.23V289.88z M235.3,292.34l-0.24-0.12h-0.12c0,0.08,0.02,0.14,0.06,0.18   c0.04,0.04,0.06,0.1,0.06,0.18h0.24V292.34z M235.3,276.85h0.35v-0.12h-0.35V276.85z M236.36,278.02   c-0.39-0.08-0.59-0.16-0.59-0.23h-0.47l0.59,0.59l0.12-0.12C235.93,278.25,236.04,278.18,236.36,278.02z M235.65,287.18   c0-0.08,0.04-0.16,0.12-0.23v-0.12l-0.35,0.23v0.12H235.65z M235.65,284.95l0.24-0.12v-0.23l-0.24,0.12V284.95z M236,278.72   c-0.08,0-0.16,0.04-0.24,0.12H236V278.72z M236.24,295.51l-0.12,0.12l0.12,0.23V295.51z M236.24,296.45h-0.12   c0,0.08,0.04,0.12,0.12,0.12V296.45z M236.71,281.89l-0.35-0.35l-0.12-0.12c0,0.08,0.02,0.18,0.06,0.29   c0.04,0.12,0.06,0.22,0.06,0.29C236.43,282.01,236.55,281.97,236.71,281.89z M237.18,274.03c-0.16-0.16-0.27-0.23-0.35-0.23h-0.47   v0.23c0,0.08,0.04,0.12,0.12,0.12C236.71,274.15,236.94,274.11,237.18,274.03z M236.47,275.67v0.82l0.35-0.23v-0.12   c0-0.08,0.02-0.12,0.06-0.12c0.04,0,0.06-0.08,0.06-0.23c0-0.08-0.04-0.16-0.12-0.23c-0.08,0-0.12,0.02-0.12,0.06   c0,0.04-0.04,0.06-0.12,0.06H236.47z M236.83,290.93c0.08-0.31,0.12-0.59,0.12-0.82c-0.08-0.08-0.12-0.16-0.12-0.23v-0.12   c-0.23,0-0.35,0.12-0.35,0.35v1.76l0.35,0.12c0-0.16,0.04-0.25,0.12-0.29c0.08-0.04,0.12-0.14,0.12-0.29   c0-0.08-0.04-0.16-0.12-0.23c-0.08,0-0.12-0.06-0.12-0.18C236.83,290.87,236.83,290.85,236.83,290.93z M236.83,274.97   c0-0.08-0.04-0.12-0.12-0.12L236.83,274.97z M236.94,280.49c0-0.08,0.02-0.14,0.06-0.18c0.04-0.04,0.06-0.1,0.06-0.18   c0-0.31-0.04-0.51-0.12-0.59c-0.16,0-0.23,0.08-0.23,0.23c0,0.23,0.04,0.39,0.12,0.47c0,0.08,0.02,0.12,0.06,0.12   C236.92,280.37,236.94,280.41,236.94,280.49z M238,278.49l-0.82-0.47c-0.24,0-0.35,0.23-0.35,0.7c0.08,0.08,0.12,0.16,0.12,0.23   c0.16-0.08,0.29-0.16,0.41-0.23C237.47,278.65,237.69,278.57,238,278.49z M237.88,274.97c-0.08,0.08-0.16,0.12-0.23,0.12   l-0.24,0.23c-0.08,0.16-0.12,0.39-0.12,0.7v0.47c0,0.39-0.08,0.67-0.23,0.82c0,0.08,0.04,0.16,0.12,0.23   c0.08,0,0.12-0.04,0.12-0.12c0.08-0.08,0.21-0.12,0.41-0.12c0.19,0,0.29-0.08,0.29-0.23c-0.08-0.16-0.12-0.35-0.12-0.59   c0-0.16,0.02-0.33,0.06-0.53c0.04-0.19,0.06-0.37,0.06-0.53C238,275.2,237.96,275.05,237.88,274.97z M237.18,273.09   c0-0.08,0.08-0.19,0.23-0.35c0-0.08,0.02-0.14,0.06-0.18c0.04-0.04,0.06-0.14,0.06-0.29l-0.23-0.23l-0.12,0.12V273.09z M238,274.38   h-0.47c0,0.08,0.12,0.23,0.35,0.47C237.88,274.62,237.92,274.46,238,274.38z M239.17,272.5l-0.59-0.23c-0.08,0-0.2,0.08-0.35,0.23   l-0.12,0.12c0,0.16,0.04,0.26,0.12,0.29c0.08,0.04,0.12,0.14,0.12,0.29L239.17,272.5z M238.7,273.79l-0.12-0.23h-0.12h-0.35   c0.08,0.16,0.16,0.23,0.24,0.23H238.7z M238.47,218.51l0.12-0.12l0.12,0.12H238.47z M238.7,271.45l-0.12-0.23h-0.12v0.35   c0.08,0,0.12-0.02,0.12-0.06C238.59,271.47,238.63,271.45,238.7,271.45z M239.53,267.69c-0.08,0-0.14,0.02-0.18,0.06   c-0.04,0.04-0.1,0.06-0.18,0.06c-0.08,0.16-0.12,0.28-0.12,0.35c0,0.08-0.04,0.16-0.12,0.23l0.35-0.23L239.53,267.69z    M240.11,264.76h0.35c-0.16,0.31-0.29,0.59-0.41,0.82c-0.12,0.23-0.25,0.47-0.41,0.7c0,0.16,0.04,0.28,0.12,0.35h0.35   c0.08-0.23,0.18-0.45,0.29-0.65c0.12-0.19,0.21-0.37,0.29-0.53l0.47-1.17v-0.59l-0.7,0.23   C240.39,264.01,240.27,264.29,240.11,264.76z M241.05,263.23h0.12c0.08-0.08,0.16-0.12,0.24-0.12c-0.16-0.08-0.39-0.12-0.7-0.12   H240l0.24,0.23H241.05z M241.52,271.21h-0.12c0,0.08,0.04,0.12,0.12,0.12V271.21z M242.46,267.57c0-0.08-0.04-0.16-0.12-0.23   l-0.12,0.12h-0.23l0.23,0.12H242.46z M242.58,264.99c0.08-0.08,0.14-0.12,0.18-0.12c0.04,0,0.1-0.04,0.18-0.12   c0.08,0,0.12-0.04,0.12-0.12c0-0.08-0.02-0.14-0.06-0.18c-0.04-0.04-0.06-0.1-0.06-0.18c-0.23,0-0.35,0.04-0.35,0.12V264.99z    M243.75,263c-0.16,0-0.24-0.02-0.24-0.06c0-0.04-0.04-0.06-0.12-0.06c-0.08,0-0.12-0.04-0.12-0.12l-0.24,0.12   c0,0.08,0.04,0.12,0.12,0.12h0.12c0,0.08,0.08,0.12,0.23,0.12C243.59,263.11,243.67,263.07,243.75,263z M244.1,258.77   c-0.08,0.39-0.16,0.63-0.23,0.7l0.23,0.23c0.31-0.16,0.51-0.23,0.59-0.23c0-0.08-0.04-0.16-0.12-0.23L244.1,258.77z M244.69,258.18   l-0.12-0.35v0.7C244.65,258.46,244.69,258.34,244.69,258.18z M250.21,220.27c0.23,0.08,0.47,0.18,0.7,0.29   c0.24,0.12,0.43,0.22,0.59,0.29c-0.16-0.23-0.31-0.37-0.47-0.41C250.87,220.41,250.6,220.35,250.21,220.27z"/>
	<path class="st5" d="M293.63,275.09l-0.12,0.12c-0.23,0.08-0.43,0.14-0.59,0.18c-0.16,0.04-0.23,0.18-0.23,0.41   c0,0.08-0.08,0.2-0.23,0.35l-0.24,0.12c0.08,0.08,0.16,0.12,0.24,0.12c-0.31,0.47-0.63,0.82-0.94,1.06   c-0.16,0.16-0.23,0.2-0.23,0.12c-0.7,0.31-1.37,0.7-2,1.17c-0.63,0.47-1.33,0.78-2.11,0.94c-0.23,0-0.35,0.08-0.35,0.23   c-0.08,0.08-0.2,0.18-0.35,0.29c-0.16,0.12-0.31,0.18-0.47,0.18c-0.39,0.47-0.88,0.82-1.47,1.06c-0.59,0.23-1.16,0.55-1.7,0.94   h-0.12c-0.08,0-0.16-0.02-0.24-0.06c-0.08-0.04-0.2-0.06-0.35-0.06c-0.24,0-0.39,0.04-0.47,0.12c-0.16,0.31-0.35,0.49-0.59,0.53   c-0.23,0.04-0.39,0.1-0.47,0.18c-0.08,0.08-0.27,0.12-0.59,0.12c-0.31,0-0.51-0.04-0.59-0.12c-1.02,0.39-1.96,0.65-2.82,0.76   c-0.86,0.12-1.88,0.22-3.05,0.29c-0.47,0-0.86,0.16-1.17,0.47c-0.08,0.08-0.18,0.22-0.29,0.41c-0.12,0.2-0.22,0.41-0.29,0.65   c-0.31,0.39-0.55,0.67-0.7,0.82l-0.47,0.23v0.23c0,0.39-0.12,0.72-0.35,1c-0.23,0.28-0.55,0.61-0.94,1l-0.35,1.06   c-0.31,0.39-0.59,0.72-0.82,1c-0.23,0.28-0.55,0.61-0.94,1c-0.16,0.16-0.33,0.31-0.53,0.47c-0.2,0.16-0.29,0.35-0.29,0.59   c0,0.08,0.04,0.14,0.12,0.18c0.08,0.04,0.12,0.1,0.12,0.18v0.23c-0.63,0.23-1.08,0.55-1.35,0.94c-0.27,0.39-0.8,0.59-1.58,0.59   h-0.24h-0.35H263c-0.24,0.16-0.59,0.23-1.06,0.23c-0.39,0-0.82-0.08-1.29-0.23c-0.86,0-1.53-0.12-2-0.35   c-1.1-0.31-1.94-0.82-2.52-1.53c-0.59-0.7-0.96-1.45-1.12-2.23c0-0.23-0.02-0.49-0.06-0.76c-0.04-0.27-0.06-0.53-0.06-0.76   c0-0.78,0.12-1.6,0.35-2.46c0.08-0.08,0.12-0.27,0.12-0.59v-0.7c0.31-0.78,0.59-1.54,0.82-2.29c0.24-0.74,0.63-1.47,1.17-2.17   c0.16-0.23,0.24-0.43,0.24-0.59c0-0.16,0.04-0.31,0.12-0.47c0-0.55-0.2-1.06-0.59-1.53c-0.63-0.78-1.19-1.58-1.7-2.41   c-0.51-0.82-0.88-1.74-1.12-2.76c0-0.16-0.02-0.25-0.06-0.29c-0.04-0.04-0.06-0.14-0.06-0.29c-0.08-0.23-0.12-0.59-0.12-1.06   c0-0.86,0.27-1.84,0.82-2.93v-0.47c0-0.23,0.04-0.43,0.12-0.59c0.16-0.08,0.31-0.35,0.47-0.82c0.39-0.63,0.92-1.19,1.58-1.7   c0.66-0.51,1.31-0.96,1.94-1.35c0.78-0.63,1.72-0.94,2.82-0.94h0.59c0.23,0,0.49-0.02,0.76-0.06c0.27-0.04,0.53-0.06,0.76-0.06   c0.39,0,0.76,0.02,1.12,0.06c0.35,0.04,0.76,0.1,1.23,0.18c0.23,0,0.45,0.04,0.65,0.12c0.19,0.08,0.37,0.12,0.53,0.12   c0.16,0,0.27-0.02,0.35-0.06c0.08-0.04,0.19-0.06,0.35-0.06c0.63,0,1.21,0.12,1.76,0.35c0.55,0.23,1.13,0.43,1.76,0.59l2.93,1.64   c0.31,0.23,0.55,0.59,0.7,1.06c0.16,0.47,0.31,0.94,0.47,1.41v0.12c0,0.16-0.08,0.23-0.23,0.23c-0.16,0-0.31,0.08-0.47,0.23   c0,0.16-0.04,0.28-0.12,0.35c0.31-0.08,0.59-0.12,0.82-0.12h0.35v0.12v0.23c0.08,0.08,0.12,0.23,0.12,0.47   c0,0.16-0.02,0.35-0.06,0.59c-0.04,0.23-0.06,0.43-0.06,0.59v0.23c0,0.08,0.02,0.16,0.06,0.23c0.04,0.08,0.06,0.16,0.06,0.23   c0,0.23-0.04,0.47-0.12,0.7c-0.08,0.23-0.12,0.43-0.12,0.59v0.59c0,0.78-0.04,1.33-0.12,1.64c-0.08,0.23-0.18,0.51-0.29,0.82   c-0.12,0.31-0.18,0.63-0.18,0.94v0.12c0,0.16-0.06,0.31-0.18,0.47c-0.12,0.16-0.22,0.31-0.29,0.47c0,0.16-0.08,0.39-0.23,0.7v0.94   c0,0.47,0.27,0.7,0.82,0.7c0.39,0,0.78-0.04,1.17-0.12c0.39-0.08,0.86-0.16,1.41-0.23c0.55-0.08,1.02-0.23,1.41-0.47   c1.33-0.55,2.66-1.04,3.99-1.47c1.33-0.43,2.66-0.96,3.99-1.58h0.12H288c0.16,0,0.27-0.04,0.35-0.12c0.23-0.23,0.47-0.39,0.7-0.47   c0.39-0.16,0.72-0.25,1-0.29c0.27-0.04,0.61-0.14,1-0.29c0.24-0.23,0.71-0.43,1.41-0.59c0.16,0,0.27-0.02,0.35-0.06   c0.08-0.04,0.16-0.06,0.24-0.06C293.12,274.85,293.32,274.93,293.63,275.09z M271.69,273.79c0.08-0.39,0.12-0.98,0.12-1.76   c0-1.17-0.12-2.35-0.35-3.52c-0.16-0.7-0.49-1.37-1-2c-0.51-0.63-1.39-1.13-2.64-1.53c-0.31-0.08-0.57-0.14-0.76-0.18   c-0.2-0.04-0.41-0.06-0.65-0.06c-0.31,0-0.55,0.04-0.7,0.12c-0.7,0.08-1.25,0.22-1.64,0.41c-0.39,0.2-0.9,0.37-1.53,0.53   c-0.7,0.55-1.45,1.25-2.23,2.11c-0.47,0.63-0.76,1.23-0.88,1.82c-0.12,0.59-0.37,1.19-0.76,1.82c-0.08,0.08-0.12,0.16-0.12,0.23   c0,0.23,0.12,0.45,0.35,0.65c0.23,0.2,0.35,0.37,0.35,0.53c-0.08,0.16-0.12,0.31-0.12,0.47c0,0.16,0.04,0.27,0.12,0.35   c0.16,0.23,0.24,0.49,0.24,0.76c0,0.28,0.04,0.57,0.12,0.88c0.08,0.08,0.16,0.12,0.23,0.12h0.35c0.08,0,0.12-0.04,0.12-0.12   c0.31-0.47,0.57-0.88,0.76-1.23c0.19-0.35,0.45-0.72,0.76-1.11c0.39-0.63,0.72-1.13,1-1.53c0.27-0.39,0.65-0.82,1.12-1.29   c0.31-0.31,0.66-0.47,1.06-0.47c0.08-0.08,0.27-0.12,0.59-0.12c0.16,0,0.31,0.04,0.47,0.12c0.16,0.08,0.35,0.16,0.59,0.23   c0.31,0.39,0.47,0.86,0.47,1.41c0,0.39-0.08,0.7-0.23,0.94c-0.31,0.16-0.49,0.33-0.53,0.53c-0.04,0.2-0.14,0.37-0.29,0.53   c-0.63,0.86-1.21,1.74-1.76,2.64c-0.55,0.9-1.02,1.9-1.41,2.99c-0.16,0.16-0.23,0.28-0.23,0.35c0,0.16,0.23,0.28,0.7,0.35   c0.47,0.39,1.04,0.65,1.7,0.76c0.66,0.12,1.39,0.26,2.17,0.41h0.82c0.62,0,1.02-0.27,1.17-0.82c0.16-0.31,0.35-0.66,0.59-1.06   c0.23-0.39,0.39-0.78,0.47-1.17c0.24-0.63,0.49-1.31,0.76-2.05C271.31,275.11,271.53,274.42,271.69,273.79z M260.18,287.53   c-0.08,0.31-0.12,0.59-0.12,0.82c0,0.23-0.08,0.51-0.24,0.82c-0.08,0.16-0.12,0.31-0.12,0.47c0,0.23,0.06,0.47,0.18,0.7   c0.12,0.23,0.18,0.47,0.18,0.7c0,0.16,0.16,0.23,0.47,0.23h0.12c0.23,0,0.35-0.04,0.35-0.12c1.56-1.02,2.97-2.39,4.23-4.11   c0.39-0.39,0.7-0.82,0.94-1.29c0.23-0.47,0.51-0.98,0.82-1.53v-0.23c0-0.31-0.23-0.51-0.7-0.59c-0.39-0.16-0.72-0.27-1-0.35   c-0.27-0.08-0.61-0.16-1-0.23c-0.55-0.39-1.1-0.59-1.64-0.59h-0.35c-0.63,0-1.06,0.2-1.29,0.59c-0.08,0.31-0.18,0.57-0.29,0.76   c-0.12,0.2-0.18,0.45-0.18,0.76c0,0.31,0.04,0.55,0.12,0.7v0.12v0.35L260.18,287.53z M275.68,272.5c-0.08-0.08-0.12-0.08-0.12,0   c-0.08,0-0.12,0.02-0.12,0.06c0,0.04-0.04,0.06-0.12,0.06h-0.12c0.16,0,0.25-0.02,0.29-0.06   C275.54,272.52,275.6,272.5,275.68,272.5z M287.88,277.55v-0.12h-0.12v0.12H287.88z"/>
</g>
<g>
	<path class="st2" d="M385.88,285.39c-0.73,3.07-4.98,12.58-5.12,13.02c-3.66,5.12-9.36,15.95-28.82,21.36   c-6,1.76-19.16,1.9-25.6,0.59c-8.63-1.9-19.75-5.85-24.14-13.61c-0.58-1.02-4.09-4.53-3.8-9.8c0.15-2.05-1.61-10.39,7.61-13.61   c6.88-2.34,14.05,1.76,15.51,8.78c1.46,7.17-1.32,5.41-0.29,7.9c0.15,0.59,0.73,1.17,0.88,1.76c0.59,1.32,1.61,2.63-0.15,3.8   c-0.59,0.29,0.29,1.76,1.02,1.61c1.75-0.44,2.78,0.59,3.36,1.61c2.63,3.95,9.8,1.61,9.51,6c-0.15,0.29,0.29,0.59,0.44,0.88   c0.88-1.02,0.58,0,1.32-3.66c9.22-1.76,16.09-12.14,18.87-20.48c4.24-12.43,2.49-10.39,3.95-15.95c0.15-0.73,0.88-1.46-0.15-2.05   c-0.88-0.44-1.61,0-2.19,0.59c-6.88,5.12-14.63,7.17-23.12,7.17c-4.97,0-9.8-1.32-14.48-2.93c-15.95-5.71-26.33-21.21-20.78-38.33   c1.9-5.56,2.78-8.19,6.73-12.29c1.46-1.32,2.19-3.22,3.95-4.39c3.22-2.05,5.71-4.83,9.66-5.56c2.49-1.61,5.27-2.49,8.19-2.93   c28.09-5.12,50.33,5.12,57.64,32.92C390.85,266.23,387.04,280.13,385.88,285.39z M306.58,246.77c0-0.15-0.15-0.29-0.29-0.44   c0,0-0.15,0.15-0.29,0.15c0.15,0.29,0.29,0.29,0.44,0.44C306.58,246.92,306.73,246.77,306.58,246.77z M306.44,235.51   c0.29,1.02-0.59,2.05,0.15,3.22C307.32,237.56,306.88,236.38,306.44,235.51z M317.56,239.46c1.61-0.44,1.46-1.46,1.46-2.63   c0.15-1.46-1.32-1.32-1.32-0.15c0,2.34-1.61-0.73-3.66-0.15c-3.36,0.73-4.54-0.44-6.44-1.17c-0.29-0.15-0.73-0.15-1.17-0.15   c1.17,1.17,2.63,2.19,2.49,4.24c-0.15,0.88,2.05,1.32,2.93,0.59c0.29-0.44,0.44-1.32,1.46-1.02c-0.44,1.02-0.88,1.9-1.02,2.93   c-0.15,0.29,0.15,0.88,0.44,1.02s1.02,0,1.17-0.15C314.34,240.92,315.8,239.9,317.56,239.46z M310.09,308.36   c-0.15-0.29-0.29-0.44-0.29-0.59c-0.44,0.73-0.44,0.44-0.15,0.88C309.8,308.51,309.95,308.36,310.09,308.36z M310.24,230.53   c-0.59,0.88-0.59,0.59,0,1.17c0.15-0.29,0.29-0.44,0.44-0.59L310.24,230.53z M313.02,251.45c-0.29-1.76,0.44-1.46-2.49-1.46   C310.83,251.31,310.24,250.87,313.02,251.45c-0.15,0.73-0.15,1.32-0.29,2.34C313.61,252.77,313.02,252.18,313.02,251.45z    M311.85,234.19c0,0.29,0.44,0.44,0.59,0.44c0.73,0,0.73-1.17,0.73-1.46c0-0.59,0.29-0.29-0.88-1.32   C311.85,232.43,311.27,232.43,311.85,234.19z M316.82,303.24c0.15-0.29,0.29-0.73,0.29-1.02l-0.29-0.15l-0.73,0.73L316.82,303.24z    M359.1,241.8c-0.73-2.05-0.73-3.22-1.32-4.1c-2.05-3.07-6.73-12-17.12-12.14c-8.05-0.29-12.87,4.39-17.12,10.24   c-1.17,1.61,1.02,2.49-3.07,6.14c-2.2,1.9-2.2,4.39-2.78,6.73c0,0.15,0.15,0.59,0.29,0.59c0.29,0.15,0.44,0,1.61-0.73   c0.59,1.02,2.19,1.61,1.9,3.22c-0.59,2.63,0.15,4.97,1.32,7.31c0.15,0.44,0.15,0.88,0.15,1.17c0.29,2.19,1.32,1.76,2.78,4.1   c4.68,7.31,18.29,10.83,27.5,2.93c4.1-3.8,7.32-11.56,6.88-17.26c-0.15-1.61,0-3.36-0.29-4.97c-0.15-0.88,0.59-1.17,0.73-1.76   C360.86,242.24,359.4,242.38,359.1,241.8z M319.31,295.63l-0.44-0.88c-0.15,0.15-0.44,0.15-0.44,0.29c-0.15,0.29,0,0.59,0.15,0.73   C318.73,295.78,319.02,295.78,319.31,295.63z M321.07,245.75c0.15,0.29-0.29,0.73-0.44,0.88c-0.73,0.15-1.46-0.59-1.17-1.17   c0-0.29,0.44-0.44,0.88-0.88C320.77,245.16,321.07,245.46,321.07,245.75z M320.48,291.54c-0.15-0.29-0.29-0.44-0.44-0.59   c-0.15,0-0.29,0.29-0.59,0.44C320.19,291.98,319.9,291.83,320.48,291.54z M333.65,317.58l-1.32-1.46c-0.15,0-0.29,0-0.29,0.15   c-0.29,0.59,0.44,1.9,1.02,1.76C333.21,318.02,333.35,317.87,333.65,317.58z M357.49,227.9c0.15,0.15,0.44,0.15,0.59,0.29   c0.14-0.15,0.29-0.44,0.29-0.73c0,0-0.44-0.29-0.58-0.15C357.64,227.46,357.64,227.61,357.49,227.9z M363.05,242.24l1.32-1.76   c-0.15-0.29-0.29-0.44-0.29-0.59c-0.29,0-0.59-0.15-0.73,0c-0.59,0.44-1.17,1.02-0.88,1.9   C362.47,242.09,363.05,242.24,363.05,242.24z M364.66,282.32c-0.15-0.29-0.15-0.29-0.44-0.15   C364.37,282.47,364.22,282.47,364.66,282.32z M366.86,244.72c-0.88,0.44-1.61,1.17-2.49,1.76c2.19-0.15,3.95,1.46,6,0.88   c0.15,0,0.73,0.59,1.02,0.88c0.29,0.29,0.29,0.88,0.59,1.02c0.29,0.15,1.02,0.15,1.02,0.15c0.59-2.05,2.49-3.95,0.59-6.29   c-0.29-0.44-0.44-1.32-0.44-1.9c0.29-2.19-1.46-3.36-2.05-5.27c-0.15-0.29-0.88,0-0.88,0.15c-0.73,1.9-1.76,3.66-1.76,5.56   C368.47,243.26,368.17,243.99,366.86,244.72z M368.32,290.07l-2.49-4.68c-1.02,1.32-2.34,3.51,0.15,3.8c0.15,0,0.29,0.73,0.29,0.88   c-1.76,3.07-2.05,2.34-1.61,3.36C364.81,293.73,367.15,292.12,368.32,290.07z M365.54,233.61c0.15-0.44,0.44-0.88,0.59-1.32   c0-0.15-0.44-0.29-0.88-0.44C364.81,233.61,364.81,233.17,365.54,233.61z M368.47,250.14c0.15-0.29-0.15-0.73-0.29-0.88   c-0.29-0.15-0.88-0.15-1.17,0.15c-0.59,0.44-1.17,1.17-1.76,1.9C367.44,251.75,368.03,251.6,368.47,250.14z M366.86,271.64   c-0.59-0.59-0.29-0.59-1.46-0.15C365.83,272.08,365.39,272.08,366.86,271.64z M366.56,236.68c-0.59,1.46-0.88,2.05-1.02,2.78   c-0.15,0.73,0.59,1.9,0.88,1.61C367.44,239.9,367,239.46,366.56,236.68z M365.83,224.24c0,0.15,0.15,0.44,0.29,0.73l0.59-0.44   c0-0.15-0.15-0.44-0.29-0.59C366.27,224.1,365.98,224.1,365.83,224.24z M366.13,285.25c0.29-0.15,0.88-0.15,1.17-0.29   c0.15,0,0.15-0.29,0.15-0.29c-0.15-0.15-0.44-0.44-0.59-0.29C366.71,284.52,366.42,284.81,366.13,285.25z M366.86,267.84   c0.15,0.15,0.44,0,0.59,0l-0.44-1.17c-0.29,0.29-0.59,0.44-0.59,0.59L366.86,267.84z M373.44,279.4c-2.64-2.78-2.93-3.22-4.24-0.88   c-0.44,0.73,0.73,1.76-0.29,2.49c-1.46-0.73-1.46-0.73-2.19-0.88c0,0-0.15,0.29,0,0.29c0.73,1.02,0.29,0.88,2.19,0.59   c0.44,0.59,0.73,1.32,1.17,1.9c0.15,0.15,0.59,0.29,0.73,0.29c0.15-0.29,0.44-0.44,0.44-0.73   C371.1,280.27,370.95,280.42,373.44,279.4z M369.05,230.68c0,0.15,0.29,0.15,0.29,0.15l0.44-0.44c-0.29-0.15-0.44-0.29-0.73-0.29   V230.68z M370.22,298.41c-0.29,0.29-0.59,0.59-0.59,0.88c-0.15,0.29,0.15,0.59,0.44,1.32   C371.24,298.71,371.24,299.29,370.22,298.41z M369.78,261.99l0.73,1.32c0.15,0.15,0.88,0,1.02-0.15l0.29-1.02v-0.73   c-0.59-1.17-0.59-1.32-1.75-0.88C369.49,260.96,369.64,261.4,369.78,261.99z M375.78,268.72c-1.46-0.29-1.46-0.15-1.76,1.46   c-1.17,0.73-2.49,1.32-3.66,1.9c-0.88,0.59-1.02,1.61,0,2.34c1.75,1.32,2.63,2.93,3.22,4.97c0.73-1.32,1.9-2.78,0.29-4.24   c-1.32-1.02-1.32-2.05-0.73-3.36c0.44-0.44,0.59-1.02,0.88-1.61C375.78,270.62,375.78,270.62,375.78,268.72   c0.29-0.15,0.73-0.29,0.88-0.59c0.29-0.15,0.29-0.73,0.15-1.02c-0.15-0.15-0.59-0.44-0.88-0.29c-0.15,0-0.44,0.59-0.44,0.88   S375.78,268.42,375.78,268.72z M371.1,227.31c0.15-0.15,0.29-0.15,0.44-0.15c0-0.15-0.15-0.29-0.15-0.59   C370.95,226.73,371.1,226.44,371.1,227.31z M373.15,296.07c-0.29-0.15-0.59-0.44-0.73-0.29c-0.15,0-0.29,0.29-0.44,0.44   c0,0.15,0.29,0.29,0.44,0.59C372.56,296.51,372.86,296.37,373.15,296.07z M375.63,281.88c-0.44-0.59-0.29-1.76-0.44-1.76   c-1.02-0.15-0.88,1.02-1.32,1.61c-0.58,0.73,0.15,1.61-0.14,2.05c-1.61,1.9-0.15,3.95-0.44,6c0,0.15,0.44,0.29,0.88,0.59   c0.29-0.59,1.02-1.32,0.88-1.61c-0.88-1.61-0.29-2.93,0.88-4.1C376.66,283.78,376.22,282.76,375.63,281.88z M380.9,249.7   c-0.15,1.46-0.29,1.02,0.29,1.61C381.19,250.72,381.34,251.16,380.9,249.7c-0.29-0.29-0.88-0.59-1.02-1.02   c0-0.73,0.15-1.61,0.15-2.34c0-0.88-1.02-1.61-1.9-1.61s-1.75,0.88-1.61,1.61c1.17,4.24-3.66,4.68-1.61,7.75   c0.29,0.44,0.59,1.02,0.73,1.46c0.59,0.88,2.05,1.61,2.93,1.32c1.46-0.59,0.44-2.19,1.17-5.71   C379.88,250.58,380.46,250.14,380.9,249.7z M375.93,271.93c-1.17,0.59-0.73,1.76-0.15,5.12   C378.41,274.13,377.1,271.5,375.93,271.93z M376.95,259.65c-0.29-0.29-0.58-0.44-0.88-0.59c-0.15,0.29-0.29,0.44-0.59,0.73   C376.81,260.38,376.37,260.38,376.95,259.65z M377.39,254.38c0.15,0.44,0.29,0.29-0.44,0.44c0,0,0-0.15-0.14-0.29   C377.1,254.53,377.24,254.53,377.39,254.38z M378.41,267.4c0.44-1.32,0.73-2.19,0.88-2.93c0-0.29-0.59-0.59-0.88-0.59   c-0.29,0-0.73,0.44-0.73,0.59C377.83,265.35,378.12,266.08,378.41,267.4z M379.73,290.22c-0.44-1.46-0.29-1.02-0.88-1.46   c-0.29,0.29-0.59,0.44,0,1.61c0,0.29,0.29,0.29,0.44,0.44C379.44,290.66,379.58,290.51,379.73,290.22z M380.46,269.01l0.44,0.44   c0.29-0.29,0.29-0.15,0-0.88L380.46,269.01z M382.22,281.59c0-0.15-0.59-0.59-0.73-0.44c-0.29,0-0.59,0.44-0.73,0.73   c0.29,0.15,0.44,0.44,0.88,0.73C381.93,282.17,382.22,281.88,382.22,281.59z M381.63,290.07c0,0-0.15-0.15-0.15-0.29   c-0.59,0.44-0.44,0.29-0.29,0.73L381.63,290.07z"/>
</g>
</svg>